<mxfile host="65bd71144e">
    <diagram id="pMWZ6sZ_lIM8D4WaLJjF" name="Page-1">
        <mxGraphModel dx="587" dy="427" grid="1" gridSize="10" guides="1" tooltips="1" connect="1" arrows="1" fold="1" page="1" pageScale="1" pageWidth="1100" pageHeight="850" math="0" shadow="0">
            <root>
                <mxCell id="0"/>
                <mxCell id="1" parent="0"/>
                <mxCell id="34" value="Compra" style="shape=table;childLayout=tableLayout;startSize=40;collapsible=0;recursiveResize=0;expand=0;rounded=1;fontSize=20;fontColor=#FFFF00;strokeColor=none;fillColor=#454545;gradientColor=none;swimlaneFillColor=#1C1C1C;fontStyle=1;swimlaneLine=0;" vertex="1" parent="1">
                    <mxGeometry x="50" y="220" width="1530" height="392" as="geometry"/>
                </mxCell>
                <mxCell id="35" value="" style="shape=tableRow;horizontal=0;swimlaneHead=0;swimlaneBody=0;top=0;left=0;bottom=0;right=0;dropTarget=0;fontStyle=0;fillColor=none;points=[[0,0.5],[1,0.5]];portConstraint=eastwest;startSize=40;collapsible=0;recursiveResize=0;expand=0;rounded=1;fontSize=12;fontColor=#FFFF00;" vertex="1" parent="34">
                    <mxGeometry y="40" width="1530" height="28" as="geometry"/>
                </mxCell>
                <mxCell id="36" value="" style="swimlane;swimlaneHead=0;swimlaneBody=0;fontStyle=0;connectable=0;fillColor=none;startSize=40;collapsible=0;recursiveResize=0;expand=0;rounded=1;fontSize=12;fontColor=#FFFF00;" vertex="1" parent="35">
                    <mxGeometry x="40" width="79" height="28" as="geometry">
                        <mxRectangle width="79" height="28" as="alternateBounds"/>
                    </mxGeometry>
                </mxCell>
                <mxCell id="37" value="" style="swimlane;swimlaneHead=0;swimlaneBody=0;fontStyle=0;connectable=0;fillColor=none;startSize=40;collapsible=0;recursiveResize=0;expand=0;rounded=1;fontSize=12;fontColor=#FFFF00;" vertex="1" parent="35">
                    <mxGeometry x="119" width="78" height="28" as="geometry">
                        <mxRectangle width="78" height="28" as="alternateBounds"/>
                    </mxGeometry>
                </mxCell>
                <mxCell id="38" value="" style="swimlane;swimlaneHead=0;swimlaneBody=0;fontStyle=0;connectable=0;fillColor=none;startSize=40;collapsible=0;recursiveResize=0;expand=0;rounded=1;fontSize=12;fontColor=#FFFF00;" vertex="1" parent="35">
                    <mxGeometry x="197" width="78" height="28" as="geometry">
                        <mxRectangle width="78" height="28" as="alternateBounds"/>
                    </mxGeometry>
                </mxCell>
                <mxCell id="39" value="" style="swimlane;swimlaneHead=0;swimlaneBody=0;fontStyle=0;connectable=0;fillColor=none;startSize=40;collapsible=0;recursiveResize=0;expand=0;rounded=1;fontSize=12;fontColor=#FFFF00;" vertex="1" parent="35">
                    <mxGeometry x="275" width="78" height="28" as="geometry">
                        <mxRectangle width="78" height="28" as="alternateBounds"/>
                    </mxGeometry>
                </mxCell>
                <mxCell id="40" value="" style="swimlane;swimlaneHead=0;swimlaneBody=0;fontStyle=0;connectable=0;fillColor=none;startSize=40;collapsible=0;recursiveResize=0;expand=0;rounded=1;fontSize=12;fontColor=#FFFF00;" vertex="1" parent="35">
                    <mxGeometry x="353" width="79" height="28" as="geometry">
                        <mxRectangle width="79" height="28" as="alternateBounds"/>
                    </mxGeometry>
                </mxCell>
                <mxCell id="41" value="" style="swimlane;swimlaneHead=0;swimlaneBody=0;fontStyle=0;connectable=0;fillColor=none;startSize=40;collapsible=0;recursiveResize=0;expand=0;rounded=1;fontSize=12;fontColor=#FFFF00;" vertex="1" parent="35">
                    <mxGeometry x="432" width="78" height="28" as="geometry">
                        <mxRectangle width="78" height="28" as="alternateBounds"/>
                    </mxGeometry>
                </mxCell>
                <mxCell id="42" value="" style="swimlane;swimlaneHead=0;swimlaneBody=0;fontStyle=0;connectable=0;fillColor=none;startSize=40;collapsible=0;recursiveResize=0;expand=0;rounded=1;fontSize=12;fontColor=#FFFF00;" vertex="1" parent="35">
                    <mxGeometry x="510" width="13" height="28" as="geometry">
                        <mxRectangle width="13" height="28" as="alternateBounds"/>
                    </mxGeometry>
                </mxCell>
                <mxCell id="43" value="" style="swimlane;swimlaneHead=0;swimlaneBody=0;fontStyle=0;connectable=0;fillColor=none;startSize=40;collapsible=0;recursiveResize=0;expand=0;rounded=1;fontSize=12;fontColor=#FFFF00;" vertex="1" parent="35">
                    <mxGeometry x="523" width="145" height="28" as="geometry">
                        <mxRectangle width="145" height="28" as="alternateBounds"/>
                    </mxGeometry>
                </mxCell>
                <mxCell id="44" value="" style="swimlane;swimlaneHead=0;swimlaneBody=0;fontStyle=0;connectable=0;fillColor=none;startSize=40;collapsible=0;recursiveResize=0;expand=0;rounded=1;fontSize=12;fontColor=#FFFF00;" vertex="1" parent="35">
                    <mxGeometry x="668" width="78" height="28" as="geometry">
                        <mxRectangle width="78" height="28" as="alternateBounds"/>
                    </mxGeometry>
                </mxCell>
                <mxCell id="45" value="" style="swimlane;swimlaneHead=0;swimlaneBody=0;fontStyle=0;connectable=0;fillColor=none;startSize=40;collapsible=0;recursiveResize=0;expand=0;rounded=1;fontSize=12;fontColor=#FFFF00;" vertex="1" parent="35">
                    <mxGeometry x="746" width="78" height="28" as="geometry">
                        <mxRectangle width="78" height="28" as="alternateBounds"/>
                    </mxGeometry>
                </mxCell>
                <mxCell id="46" value="" style="swimlane;swimlaneHead=0;swimlaneBody=0;fontStyle=0;connectable=0;fillColor=none;startSize=40;collapsible=0;recursiveResize=0;expand=0;rounded=1;fontSize=12;fontColor=#FFFF00;" vertex="1" parent="35">
                    <mxGeometry x="824" width="78" height="28" as="geometry">
                        <mxRectangle width="78" height="28" as="alternateBounds"/>
                    </mxGeometry>
                </mxCell>
                <mxCell id="47" value="" style="swimlane;swimlaneHead=0;swimlaneBody=0;fontStyle=0;connectable=0;fillColor=none;startSize=40;collapsible=0;recursiveResize=0;expand=0;rounded=1;fontSize=12;fontColor=#FFFF00;" vertex="1" parent="35">
                    <mxGeometry x="902" width="79" height="28" as="geometry">
                        <mxRectangle width="79" height="28" as="alternateBounds"/>
                    </mxGeometry>
                </mxCell>
                <mxCell id="48" value="" style="swimlane;swimlaneHead=0;swimlaneBody=0;fontStyle=0;connectable=0;fillColor=none;startSize=40;collapsible=0;recursiveResize=0;expand=0;rounded=1;fontSize=12;fontColor=#FFFF00;" vertex="1" parent="35">
                    <mxGeometry x="981" width="79" height="28" as="geometry">
                        <mxRectangle width="79" height="28" as="alternateBounds"/>
                    </mxGeometry>
                </mxCell>
                <mxCell id="49" value="" style="swimlane;swimlaneHead=0;swimlaneBody=0;fontStyle=0;connectable=0;fillColor=none;startSize=40;collapsible=0;recursiveResize=0;expand=0;rounded=1;fontSize=12;fontColor=#FFFF00;" vertex="1" parent="35">
                    <mxGeometry x="1060" width="78" height="28" as="geometry">
                        <mxRectangle width="78" height="28" as="alternateBounds"/>
                    </mxGeometry>
                </mxCell>
                <mxCell id="50" value="" style="swimlane;swimlaneHead=0;swimlaneBody=0;fontStyle=0;connectable=0;fillColor=none;startSize=40;collapsible=0;recursiveResize=0;expand=0;rounded=1;fontSize=12;fontColor=#FFFF00;" vertex="1" parent="35">
                    <mxGeometry x="1138" width="79" height="28" as="geometry">
                        <mxRectangle width="79" height="28" as="alternateBounds"/>
                    </mxGeometry>
                </mxCell>
                <mxCell id="51" value="" style="swimlane;swimlaneHead=0;swimlaneBody=0;fontStyle=0;connectable=0;fillColor=none;startSize=40;collapsible=0;recursiveResize=0;expand=0;rounded=1;fontSize=12;fontColor=#FFFF00;" vertex="1" parent="35">
                    <mxGeometry x="1217" width="78" height="28" as="geometry">
                        <mxRectangle width="78" height="28" as="alternateBounds"/>
                    </mxGeometry>
                </mxCell>
                <mxCell id="52" value="" style="swimlane;swimlaneHead=0;swimlaneBody=0;fontStyle=0;connectable=0;fillColor=none;startSize=40;collapsible=0;recursiveResize=0;expand=0;rounded=1;fontSize=12;fontColor=#FFFF00;" vertex="1" parent="35">
                    <mxGeometry x="1295" width="78" height="28" as="geometry">
                        <mxRectangle width="78" height="28" as="alternateBounds"/>
                    </mxGeometry>
                </mxCell>
                <mxCell id="53" value="" style="swimlane;swimlaneHead=0;swimlaneBody=0;fontStyle=0;connectable=0;fillColor=none;startSize=40;collapsible=0;recursiveResize=0;expand=0;rounded=1;fontSize=12;fontColor=#FFFF00;" vertex="1" parent="35">
                    <mxGeometry x="1373" width="78" height="28" as="geometry">
                        <mxRectangle width="78" height="28" as="alternateBounds"/>
                    </mxGeometry>
                </mxCell>
                <mxCell id="54" value="" style="swimlane;swimlaneHead=0;swimlaneBody=0;fontStyle=0;connectable=0;fillColor=none;startSize=40;collapsible=0;recursiveResize=0;expand=0;rounded=1;fontSize=12;fontColor=#FFFF00;" vertex="1" parent="35">
                    <mxGeometry x="1451" width="79" height="28" as="geometry">
                        <mxRectangle width="79" height="28" as="alternateBounds"/>
                    </mxGeometry>
                </mxCell>
                <mxCell id="55" value="" style="shape=tableRow;horizontal=0;swimlaneHead=0;swimlaneBody=0;top=0;left=0;bottom=0;right=0;dropTarget=0;fontStyle=0;fillColor=none;points=[[0,0.5],[1,0.5]];portConstraint=eastwest;startSize=40;collapsible=0;recursiveResize=0;expand=0;rounded=1;fontSize=12;fontColor=#FFFF00;" vertex="1" parent="34">
                    <mxGeometry y="68" width="1530" height="27" as="geometry"/>
                </mxCell>
                <mxCell id="56" value="" style="swimlane;swimlaneHead=0;swimlaneBody=0;fontStyle=0;connectable=0;fillColor=none;startSize=0;collapsible=0;recursiveResize=0;expand=0;rounded=1;fontSize=12;fontColor=#FFFF00;" vertex="1" parent="55">
                    <mxGeometry x="40" width="79" height="27" as="geometry">
                        <mxRectangle width="79" height="27" as="alternateBounds"/>
                    </mxGeometry>
                </mxCell>
                <mxCell id="57" value="" style="swimlane;swimlaneHead=0;swimlaneBody=0;fontStyle=0;connectable=0;fillColor=none;startSize=0;collapsible=0;recursiveResize=0;expand=0;rounded=1;fontSize=12;fontColor=#FFFF00;" vertex="1" parent="55">
                    <mxGeometry x="119" width="78" height="27" as="geometry">
                        <mxRectangle width="78" height="27" as="alternateBounds"/>
                    </mxGeometry>
                </mxCell>
                <mxCell id="58" value="" style="swimlane;swimlaneHead=0;swimlaneBody=0;fontStyle=0;connectable=0;fillColor=none;startSize=0;collapsible=0;recursiveResize=0;expand=0;rounded=1;fontSize=12;fontColor=#FFFF00;" vertex="1" parent="55">
                    <mxGeometry x="197" width="78" height="27" as="geometry">
                        <mxRectangle width="78" height="27" as="alternateBounds"/>
                    </mxGeometry>
                </mxCell>
                <mxCell id="59" value="" style="swimlane;swimlaneHead=0;swimlaneBody=0;fontStyle=0;connectable=0;fillColor=none;startSize=0;collapsible=0;recursiveResize=0;expand=0;rounded=1;fontSize=12;fontColor=#FFFF00;" vertex="1" parent="55">
                    <mxGeometry x="275" width="78" height="27" as="geometry">
                        <mxRectangle width="78" height="27" as="alternateBounds"/>
                    </mxGeometry>
                </mxCell>
                <mxCell id="60" value="" style="swimlane;swimlaneHead=0;swimlaneBody=0;fontStyle=0;connectable=0;fillColor=none;startSize=0;collapsible=0;recursiveResize=0;expand=0;rounded=1;fontSize=12;fontColor=#FFFF00;" vertex="1" parent="55">
                    <mxGeometry x="353" width="79" height="27" as="geometry">
                        <mxRectangle width="79" height="27" as="alternateBounds"/>
                    </mxGeometry>
                </mxCell>
                <mxCell id="61" value="" style="swimlane;swimlaneHead=0;swimlaneBody=0;fontStyle=0;connectable=0;fillColor=none;startSize=0;collapsible=0;recursiveResize=0;expand=0;rounded=1;fontSize=12;fontColor=#FFFF00;" vertex="1" parent="55">
                    <mxGeometry x="432" width="78" height="27" as="geometry">
                        <mxRectangle width="78" height="27" as="alternateBounds"/>
                    </mxGeometry>
                </mxCell>
                <mxCell id="62" value="" style="swimlane;swimlaneHead=0;swimlaneBody=0;fontStyle=0;connectable=0;fillColor=none;startSize=0;collapsible=0;recursiveResize=0;expand=0;rounded=1;fontSize=12;fontColor=#FFFF00;" vertex="1" parent="55">
                    <mxGeometry x="510" width="13" height="27" as="geometry">
                        <mxRectangle width="13" height="27" as="alternateBounds"/>
                    </mxGeometry>
                </mxCell>
                <mxCell id="63" value="" style="swimlane;swimlaneHead=0;swimlaneBody=0;fontStyle=0;connectable=0;fillColor=none;startSize=0;collapsible=0;recursiveResize=0;expand=0;rounded=1;fontSize=12;fontColor=#FFFF00;" vertex="1" parent="55">
                    <mxGeometry x="523" width="145" height="27" as="geometry">
                        <mxRectangle width="145" height="27" as="alternateBounds"/>
                    </mxGeometry>
                </mxCell>
                <mxCell id="64" value="" style="swimlane;swimlaneHead=0;swimlaneBody=0;fontStyle=0;connectable=0;fillColor=none;startSize=0;collapsible=0;recursiveResize=0;expand=0;rounded=1;fontSize=12;fontColor=#FFFF00;" vertex="1" parent="55">
                    <mxGeometry x="668" width="78" height="27" as="geometry">
                        <mxRectangle width="78" height="27" as="alternateBounds"/>
                    </mxGeometry>
                </mxCell>
                <mxCell id="65" value="" style="swimlane;swimlaneHead=0;swimlaneBody=0;fontStyle=0;connectable=0;fillColor=none;startSize=0;collapsible=0;recursiveResize=0;expand=0;rounded=1;fontSize=12;fontColor=#FFFF00;" vertex="1" parent="55">
                    <mxGeometry x="746" width="78" height="27" as="geometry">
                        <mxRectangle width="78" height="27" as="alternateBounds"/>
                    </mxGeometry>
                </mxCell>
                <mxCell id="66" value="" style="swimlane;swimlaneHead=0;swimlaneBody=0;fontStyle=0;connectable=0;fillColor=none;startSize=0;collapsible=0;recursiveResize=0;expand=0;rounded=1;fontSize=12;fontColor=#FFFF00;" vertex="1" parent="55">
                    <mxGeometry x="824" width="78" height="27" as="geometry">
                        <mxRectangle width="78" height="27" as="alternateBounds"/>
                    </mxGeometry>
                </mxCell>
                <mxCell id="67" value="" style="swimlane;swimlaneHead=0;swimlaneBody=0;fontStyle=0;connectable=0;fillColor=none;startSize=0;collapsible=0;recursiveResize=0;expand=0;rounded=1;fontSize=12;fontColor=#FFFF00;" vertex="1" parent="55">
                    <mxGeometry x="902" width="79" height="27" as="geometry">
                        <mxRectangle width="79" height="27" as="alternateBounds"/>
                    </mxGeometry>
                </mxCell>
                <mxCell id="68" value="" style="swimlane;swimlaneHead=0;swimlaneBody=0;fontStyle=0;connectable=0;fillColor=none;startSize=0;collapsible=0;recursiveResize=0;expand=0;rounded=1;fontSize=12;fontColor=#FFFF00;" vertex="1" parent="55">
                    <mxGeometry x="981" width="79" height="27" as="geometry">
                        <mxRectangle width="79" height="27" as="alternateBounds"/>
                    </mxGeometry>
                </mxCell>
                <mxCell id="69" value="" style="swimlane;swimlaneHead=0;swimlaneBody=0;fontStyle=0;connectable=0;fillColor=none;startSize=0;collapsible=0;recursiveResize=0;expand=0;rounded=1;fontSize=12;fontColor=#FFFF00;" vertex="1" parent="55">
                    <mxGeometry x="1060" width="78" height="27" as="geometry">
                        <mxRectangle width="78" height="27" as="alternateBounds"/>
                    </mxGeometry>
                </mxCell>
                <mxCell id="70" value="" style="swimlane;swimlaneHead=0;swimlaneBody=0;fontStyle=0;connectable=0;fillColor=none;startSize=0;collapsible=0;recursiveResize=0;expand=0;rounded=1;fontSize=12;fontColor=#FFFF00;" vertex="1" parent="55">
                    <mxGeometry x="1138" width="79" height="27" as="geometry">
                        <mxRectangle width="79" height="27" as="alternateBounds"/>
                    </mxGeometry>
                </mxCell>
                <mxCell id="71" value="" style="swimlane;swimlaneHead=0;swimlaneBody=0;fontStyle=0;connectable=0;fillColor=none;startSize=0;collapsible=0;recursiveResize=0;expand=0;rounded=1;fontSize=12;fontColor=#FFFF00;" vertex="1" parent="55">
                    <mxGeometry x="1217" width="78" height="27" as="geometry">
                        <mxRectangle width="78" height="27" as="alternateBounds"/>
                    </mxGeometry>
                </mxCell>
                <mxCell id="72" value="" style="swimlane;swimlaneHead=0;swimlaneBody=0;fontStyle=0;connectable=0;fillColor=none;startSize=0;collapsible=0;recursiveResize=0;expand=0;rounded=1;fontSize=12;fontColor=#FFFF00;" vertex="1" parent="55">
                    <mxGeometry x="1295" width="78" height="27" as="geometry">
                        <mxRectangle width="78" height="27" as="alternateBounds"/>
                    </mxGeometry>
                </mxCell>
                <mxCell id="73" value="" style="swimlane;swimlaneHead=0;swimlaneBody=0;fontStyle=0;connectable=0;fillColor=none;startSize=0;collapsible=0;recursiveResize=0;expand=0;rounded=1;fontSize=12;fontColor=#FFFF00;" vertex="1" parent="55">
                    <mxGeometry x="1373" width="78" height="27" as="geometry">
                        <mxRectangle width="78" height="27" as="alternateBounds"/>
                    </mxGeometry>
                </mxCell>
                <mxCell id="74" value="" style="swimlane;swimlaneHead=0;swimlaneBody=0;fontStyle=0;connectable=0;fillColor=none;startSize=0;collapsible=0;recursiveResize=0;expand=0;rounded=1;fontSize=12;fontColor=#FFFF00;" vertex="1" parent="55">
                    <mxGeometry x="1451" width="79" height="27" as="geometry">
                        <mxRectangle width="79" height="27" as="alternateBounds"/>
                    </mxGeometry>
                </mxCell>
                <mxCell id="75" value="" style="shape=tableRow;horizontal=0;swimlaneHead=0;swimlaneBody=0;top=0;left=0;bottom=0;right=0;dropTarget=0;fontStyle=0;fillColor=none;points=[[0,0.5],[1,0.5]];portConstraint=eastwest;startSize=40;collapsible=0;recursiveResize=0;expand=0;rounded=1;fontSize=12;fontColor=#FFFF00;" vertex="1" parent="34">
                    <mxGeometry y="95" width="1530" height="28" as="geometry"/>
                </mxCell>
                <mxCell id="76" value="" style="swimlane;swimlaneHead=0;swimlaneBody=0;fontStyle=0;connectable=0;fillColor=none;startSize=0;collapsible=0;recursiveResize=0;expand=0;rounded=1;fontSize=12;fontColor=#FFFF00;" vertex="1" parent="75">
                    <mxGeometry x="40" width="79" height="28" as="geometry">
                        <mxRectangle width="79" height="28" as="alternateBounds"/>
                    </mxGeometry>
                </mxCell>
                <mxCell id="77" value="" style="swimlane;swimlaneHead=0;swimlaneBody=0;fontStyle=0;connectable=0;fillColor=none;startSize=0;collapsible=0;recursiveResize=0;expand=0;rounded=1;fontSize=12;fontColor=#FFFF00;" vertex="1" parent="75">
                    <mxGeometry x="119" width="78" height="28" as="geometry">
                        <mxRectangle width="78" height="28" as="alternateBounds"/>
                    </mxGeometry>
                </mxCell>
                <mxCell id="78" value="" style="swimlane;swimlaneHead=0;swimlaneBody=0;fontStyle=0;connectable=0;fillColor=none;startSize=0;collapsible=0;recursiveResize=0;expand=0;rounded=1;fontSize=12;fontColor=#FFFF00;" vertex="1" parent="75">
                    <mxGeometry x="197" width="78" height="28" as="geometry">
                        <mxRectangle width="78" height="28" as="alternateBounds"/>
                    </mxGeometry>
                </mxCell>
                <mxCell id="79" value="" style="swimlane;swimlaneHead=0;swimlaneBody=0;fontStyle=0;connectable=0;fillColor=none;startSize=0;collapsible=0;recursiveResize=0;expand=0;rounded=1;fontSize=12;fontColor=#FFFF00;" vertex="1" parent="75">
                    <mxGeometry x="275" width="78" height="28" as="geometry">
                        <mxRectangle width="78" height="28" as="alternateBounds"/>
                    </mxGeometry>
                </mxCell>
                <mxCell id="80" value="" style="swimlane;swimlaneHead=0;swimlaneBody=0;fontStyle=0;connectable=0;fillColor=none;startSize=0;collapsible=0;recursiveResize=0;expand=0;rounded=1;fontSize=12;fontColor=#FFFF00;" vertex="1" parent="75">
                    <mxGeometry x="353" width="79" height="28" as="geometry">
                        <mxRectangle width="79" height="28" as="alternateBounds"/>
                    </mxGeometry>
                </mxCell>
                <mxCell id="81" value="" style="swimlane;swimlaneHead=0;swimlaneBody=0;fontStyle=0;connectable=0;fillColor=none;startSize=0;collapsible=0;recursiveResize=0;expand=0;rounded=1;fontSize=12;fontColor=#FFFF00;" vertex="1" parent="75">
                    <mxGeometry x="432" width="78" height="28" as="geometry">
                        <mxRectangle width="78" height="28" as="alternateBounds"/>
                    </mxGeometry>
                </mxCell>
                <mxCell id="82" value="" style="swimlane;swimlaneHead=0;swimlaneBody=0;fontStyle=0;connectable=0;fillColor=none;startSize=0;collapsible=0;recursiveResize=0;expand=0;rounded=1;fontSize=12;fontColor=#FFFF00;" vertex="1" parent="75">
                    <mxGeometry x="510" width="13" height="28" as="geometry">
                        <mxRectangle width="13" height="28" as="alternateBounds"/>
                    </mxGeometry>
                </mxCell>
                <mxCell id="83" value="" style="swimlane;swimlaneHead=0;swimlaneBody=0;fontStyle=0;connectable=0;fillColor=none;startSize=0;collapsible=0;recursiveResize=0;expand=0;rounded=1;fontSize=12;fontColor=#FFFF00;" vertex="1" parent="75">
                    <mxGeometry x="523" width="145" height="28" as="geometry">
                        <mxRectangle width="145" height="28" as="alternateBounds"/>
                    </mxGeometry>
                </mxCell>
                <mxCell id="84" value="" style="swimlane;swimlaneHead=0;swimlaneBody=0;fontStyle=0;connectable=0;fillColor=none;startSize=0;collapsible=0;recursiveResize=0;expand=0;rounded=1;fontSize=12;fontColor=#FFFF00;" vertex="1" parent="75">
                    <mxGeometry x="668" width="78" height="28" as="geometry">
                        <mxRectangle width="78" height="28" as="alternateBounds"/>
                    </mxGeometry>
                </mxCell>
                <mxCell id="85" value="" style="swimlane;swimlaneHead=0;swimlaneBody=0;fontStyle=0;connectable=0;fillColor=none;startSize=0;collapsible=0;recursiveResize=0;expand=0;rounded=1;fontSize=12;fontColor=#FFFF00;" vertex="1" parent="75">
                    <mxGeometry x="746" width="78" height="28" as="geometry">
                        <mxRectangle width="78" height="28" as="alternateBounds"/>
                    </mxGeometry>
                </mxCell>
                <mxCell id="86" value="" style="swimlane;swimlaneHead=0;swimlaneBody=0;fontStyle=0;connectable=0;fillColor=none;startSize=0;collapsible=0;recursiveResize=0;expand=0;rounded=1;fontSize=12;fontColor=#FFFF00;" vertex="1" parent="75">
                    <mxGeometry x="824" width="78" height="28" as="geometry">
                        <mxRectangle width="78" height="28" as="alternateBounds"/>
                    </mxGeometry>
                </mxCell>
                <mxCell id="87" value="" style="swimlane;swimlaneHead=0;swimlaneBody=0;fontStyle=0;connectable=0;fillColor=none;startSize=0;collapsible=0;recursiveResize=0;expand=0;rounded=1;fontSize=12;fontColor=#FFFF00;" vertex="1" parent="75">
                    <mxGeometry x="902" width="79" height="28" as="geometry">
                        <mxRectangle width="79" height="28" as="alternateBounds"/>
                    </mxGeometry>
                </mxCell>
                <mxCell id="88" value="" style="swimlane;swimlaneHead=0;swimlaneBody=0;fontStyle=0;connectable=0;fillColor=none;startSize=0;collapsible=0;recursiveResize=0;expand=0;rounded=1;fontSize=12;fontColor=#FFFF00;" vertex="1" parent="75">
                    <mxGeometry x="981" width="79" height="28" as="geometry">
                        <mxRectangle width="79" height="28" as="alternateBounds"/>
                    </mxGeometry>
                </mxCell>
                <mxCell id="89" value="" style="swimlane;swimlaneHead=0;swimlaneBody=0;fontStyle=0;connectable=0;fillColor=none;startSize=0;collapsible=0;recursiveResize=0;expand=0;rounded=1;fontSize=12;fontColor=#FFFF00;" vertex="1" parent="75">
                    <mxGeometry x="1060" width="78" height="28" as="geometry">
                        <mxRectangle width="78" height="28" as="alternateBounds"/>
                    </mxGeometry>
                </mxCell>
                <mxCell id="90" value="" style="swimlane;swimlaneHead=0;swimlaneBody=0;fontStyle=0;connectable=0;fillColor=none;startSize=0;collapsible=0;recursiveResize=0;expand=0;rounded=1;fontSize=12;fontColor=#FFFF00;" vertex="1" parent="75">
                    <mxGeometry x="1138" width="79" height="28" as="geometry">
                        <mxRectangle width="79" height="28" as="alternateBounds"/>
                    </mxGeometry>
                </mxCell>
                <mxCell id="91" value="" style="swimlane;swimlaneHead=0;swimlaneBody=0;fontStyle=0;connectable=0;fillColor=none;startSize=0;collapsible=0;recursiveResize=0;expand=0;rounded=1;fontSize=12;fontColor=#FFFF00;" vertex="1" parent="75">
                    <mxGeometry x="1217" width="78" height="28" as="geometry">
                        <mxRectangle width="78" height="28" as="alternateBounds"/>
                    </mxGeometry>
                </mxCell>
                <mxCell id="92" value="" style="swimlane;swimlaneHead=0;swimlaneBody=0;fontStyle=0;connectable=0;fillColor=none;startSize=0;collapsible=0;recursiveResize=0;expand=0;rounded=1;fontSize=12;fontColor=#FFFF00;" vertex="1" parent="75">
                    <mxGeometry x="1295" width="78" height="28" as="geometry">
                        <mxRectangle width="78" height="28" as="alternateBounds"/>
                    </mxGeometry>
                </mxCell>
                <mxCell id="93" value="" style="swimlane;swimlaneHead=0;swimlaneBody=0;fontStyle=0;connectable=0;fillColor=none;startSize=0;collapsible=0;recursiveResize=0;expand=0;rounded=1;fontSize=12;fontColor=#FFFF00;" vertex="1" parent="75">
                    <mxGeometry x="1373" width="78" height="28" as="geometry">
                        <mxRectangle width="78" height="28" as="alternateBounds"/>
                    </mxGeometry>
                </mxCell>
                <mxCell id="94" value="" style="swimlane;swimlaneHead=0;swimlaneBody=0;fontStyle=0;connectable=0;fillColor=none;startSize=0;collapsible=0;recursiveResize=0;expand=0;rounded=1;fontSize=12;fontColor=#FFFF00;" vertex="1" parent="75">
                    <mxGeometry x="1451" width="79" height="28" as="geometry">
                        <mxRectangle width="79" height="28" as="alternateBounds"/>
                    </mxGeometry>
                </mxCell>
                <mxCell id="95" value="" style="shape=tableRow;horizontal=0;swimlaneHead=0;swimlaneBody=0;top=0;left=0;bottom=0;right=0;dropTarget=0;fontStyle=0;fillColor=none;points=[[0,0.5],[1,0.5]];portConstraint=eastwest;startSize=40;collapsible=0;recursiveResize=0;expand=0;rounded=1;fontSize=12;fontColor=#FFFF00;" vertex="1" parent="34">
                    <mxGeometry y="123" width="1530" height="27" as="geometry"/>
                </mxCell>
                <mxCell id="96" value="" style="swimlane;swimlaneHead=0;swimlaneBody=0;fontStyle=0;connectable=0;fillColor=none;startSize=0;collapsible=0;recursiveResize=0;expand=0;rounded=1;fontSize=12;fontColor=#FFFF00;" vertex="1" parent="95">
                    <mxGeometry x="40" width="79" height="27" as="geometry">
                        <mxRectangle width="79" height="27" as="alternateBounds"/>
                    </mxGeometry>
                </mxCell>
                <mxCell id="97" value="" style="swimlane;swimlaneHead=0;swimlaneBody=0;fontStyle=0;connectable=0;fillColor=none;startSize=0;collapsible=0;recursiveResize=0;expand=0;rounded=1;fontSize=12;fontColor=#FFFF00;" vertex="1" parent="95">
                    <mxGeometry x="119" width="78" height="27" as="geometry">
                        <mxRectangle width="78" height="27" as="alternateBounds"/>
                    </mxGeometry>
                </mxCell>
                <mxCell id="98" value="" style="swimlane;swimlaneHead=0;swimlaneBody=0;fontStyle=0;connectable=0;fillColor=none;startSize=0;collapsible=0;recursiveResize=0;expand=0;rounded=1;fontSize=12;fontColor=#FFFF00;" vertex="1" parent="95">
                    <mxGeometry x="197" width="78" height="27" as="geometry">
                        <mxRectangle width="78" height="27" as="alternateBounds"/>
                    </mxGeometry>
                </mxCell>
                <mxCell id="99" value="" style="swimlane;swimlaneHead=0;swimlaneBody=0;fontStyle=0;connectable=0;fillColor=none;startSize=0;collapsible=0;recursiveResize=0;expand=0;rounded=1;fontSize=12;fontColor=#FFFF00;" vertex="1" parent="95">
                    <mxGeometry x="275" width="78" height="27" as="geometry">
                        <mxRectangle width="78" height="27" as="alternateBounds"/>
                    </mxGeometry>
                </mxCell>
                <mxCell id="100" value="" style="swimlane;swimlaneHead=0;swimlaneBody=0;fontStyle=0;connectable=0;fillColor=none;startSize=0;collapsible=0;recursiveResize=0;expand=0;rounded=1;fontSize=12;fontColor=#FFFF00;" vertex="1" parent="95">
                    <mxGeometry x="353" width="79" height="27" as="geometry">
                        <mxRectangle width="79" height="27" as="alternateBounds"/>
                    </mxGeometry>
                </mxCell>
                <mxCell id="101" value="" style="swimlane;swimlaneHead=0;swimlaneBody=0;fontStyle=0;connectable=0;fillColor=none;startSize=0;collapsible=0;recursiveResize=0;expand=0;rounded=1;fontSize=12;fontColor=#FFFF00;" vertex="1" parent="95">
                    <mxGeometry x="432" width="78" height="27" as="geometry">
                        <mxRectangle width="78" height="27" as="alternateBounds"/>
                    </mxGeometry>
                </mxCell>
                <mxCell id="102" value="" style="swimlane;swimlaneHead=0;swimlaneBody=0;fontStyle=0;connectable=0;fillColor=none;startSize=0;collapsible=0;recursiveResize=0;expand=0;rounded=1;fontSize=12;fontColor=#FFFF00;" vertex="1" parent="95">
                    <mxGeometry x="510" width="13" height="27" as="geometry">
                        <mxRectangle width="13" height="27" as="alternateBounds"/>
                    </mxGeometry>
                </mxCell>
                <mxCell id="103" value="" style="swimlane;swimlaneHead=0;swimlaneBody=0;fontStyle=0;connectable=0;fillColor=none;startSize=0;collapsible=0;recursiveResize=0;expand=0;rounded=1;fontSize=12;fontColor=#FFFF00;" vertex="1" parent="95">
                    <mxGeometry x="523" width="145" height="27" as="geometry">
                        <mxRectangle width="145" height="27" as="alternateBounds"/>
                    </mxGeometry>
                </mxCell>
                <mxCell id="104" value="" style="swimlane;swimlaneHead=0;swimlaneBody=0;fontStyle=0;connectable=0;fillColor=none;startSize=0;collapsible=0;recursiveResize=0;expand=0;rounded=1;fontSize=12;fontColor=#FFFF00;" vertex="1" parent="95">
                    <mxGeometry x="668" width="78" height="27" as="geometry">
                        <mxRectangle width="78" height="27" as="alternateBounds"/>
                    </mxGeometry>
                </mxCell>
                <mxCell id="105" value="" style="swimlane;swimlaneHead=0;swimlaneBody=0;fontStyle=0;connectable=0;fillColor=none;startSize=0;collapsible=0;recursiveResize=0;expand=0;rounded=1;fontSize=12;fontColor=#FFFF00;" vertex="1" parent="95">
                    <mxGeometry x="746" width="78" height="27" as="geometry">
                        <mxRectangle width="78" height="27" as="alternateBounds"/>
                    </mxGeometry>
                </mxCell>
                <mxCell id="106" value="" style="swimlane;swimlaneHead=0;swimlaneBody=0;fontStyle=0;connectable=0;fillColor=none;startSize=0;collapsible=0;recursiveResize=0;expand=0;rounded=1;fontSize=12;fontColor=#FFFF00;" vertex="1" parent="95">
                    <mxGeometry x="824" width="78" height="27" as="geometry">
                        <mxRectangle width="78" height="27" as="alternateBounds"/>
                    </mxGeometry>
                </mxCell>
                <mxCell id="107" value="" style="swimlane;swimlaneHead=0;swimlaneBody=0;fontStyle=0;connectable=0;fillColor=none;startSize=0;collapsible=0;recursiveResize=0;expand=0;rounded=1;fontSize=12;fontColor=#FFFF00;" vertex="1" parent="95">
                    <mxGeometry x="902" width="79" height="27" as="geometry">
                        <mxRectangle width="79" height="27" as="alternateBounds"/>
                    </mxGeometry>
                </mxCell>
                <mxCell id="108" value="" style="swimlane;swimlaneHead=0;swimlaneBody=0;fontStyle=0;connectable=0;fillColor=none;startSize=0;collapsible=0;recursiveResize=0;expand=0;rounded=1;fontSize=12;fontColor=#FFFF00;" vertex="1" parent="95">
                    <mxGeometry x="981" width="79" height="27" as="geometry">
                        <mxRectangle width="79" height="27" as="alternateBounds"/>
                    </mxGeometry>
                </mxCell>
                <mxCell id="109" value="" style="swimlane;swimlaneHead=0;swimlaneBody=0;fontStyle=0;connectable=0;fillColor=none;startSize=0;collapsible=0;recursiveResize=0;expand=0;rounded=1;fontSize=12;fontColor=#FFFF00;" vertex="1" parent="95">
                    <mxGeometry x="1060" width="78" height="27" as="geometry">
                        <mxRectangle width="78" height="27" as="alternateBounds"/>
                    </mxGeometry>
                </mxCell>
                <mxCell id="110" value="" style="swimlane;swimlaneHead=0;swimlaneBody=0;fontStyle=0;connectable=0;fillColor=none;startSize=0;collapsible=0;recursiveResize=0;expand=0;rounded=1;fontSize=12;fontColor=#FFFF00;" vertex="1" parent="95">
                    <mxGeometry x="1138" width="79" height="27" as="geometry">
                        <mxRectangle width="79" height="27" as="alternateBounds"/>
                    </mxGeometry>
                </mxCell>
                <mxCell id="111" value="" style="swimlane;swimlaneHead=0;swimlaneBody=0;fontStyle=0;connectable=0;fillColor=none;startSize=0;collapsible=0;recursiveResize=0;expand=0;rounded=1;fontSize=12;fontColor=#FFFF00;" vertex="1" parent="95">
                    <mxGeometry x="1217" width="78" height="27" as="geometry">
                        <mxRectangle width="78" height="27" as="alternateBounds"/>
                    </mxGeometry>
                </mxCell>
                <mxCell id="112" value="" style="swimlane;swimlaneHead=0;swimlaneBody=0;fontStyle=0;connectable=0;fillColor=none;startSize=0;collapsible=0;recursiveResize=0;expand=0;rounded=1;fontSize=12;fontColor=#FFFF00;" vertex="1" parent="95">
                    <mxGeometry x="1295" width="78" height="27" as="geometry">
                        <mxRectangle width="78" height="27" as="alternateBounds"/>
                    </mxGeometry>
                </mxCell>
                <mxCell id="113" value="" style="swimlane;swimlaneHead=0;swimlaneBody=0;fontStyle=0;connectable=0;fillColor=none;startSize=0;collapsible=0;recursiveResize=0;expand=0;rounded=1;fontSize=12;fontColor=#FFFF00;" vertex="1" parent="95">
                    <mxGeometry x="1373" width="78" height="27" as="geometry">
                        <mxRectangle width="78" height="27" as="alternateBounds"/>
                    </mxGeometry>
                </mxCell>
                <mxCell id="114" value="" style="swimlane;swimlaneHead=0;swimlaneBody=0;fontStyle=0;connectable=0;fillColor=none;startSize=0;collapsible=0;recursiveResize=0;expand=0;rounded=1;fontSize=12;fontColor=#FFFF00;" vertex="1" parent="95">
                    <mxGeometry x="1451" width="79" height="27" as="geometry">
                        <mxRectangle width="79" height="27" as="alternateBounds"/>
                    </mxGeometry>
                </mxCell>
                <mxCell id="115" value="" style="shape=tableRow;horizontal=0;swimlaneHead=0;swimlaneBody=0;top=0;left=0;bottom=0;right=0;dropTarget=0;fontStyle=0;fillColor=none;points=[[0,0.5],[1,0.5]];portConstraint=eastwest;startSize=40;collapsible=0;recursiveResize=0;expand=0;rounded=1;fontSize=12;fontColor=#FFFF00;" vertex="1" parent="34">
                    <mxGeometry y="150" width="1530" height="27" as="geometry"/>
                </mxCell>
                <mxCell id="116" value="" style="swimlane;swimlaneHead=0;swimlaneBody=0;fontStyle=0;connectable=0;fillColor=none;startSize=0;collapsible=0;recursiveResize=0;expand=0;rounded=1;fontSize=12;fontColor=#FFFF00;" vertex="1" parent="115">
                    <mxGeometry x="40" width="79" height="27" as="geometry">
                        <mxRectangle width="79" height="27" as="alternateBounds"/>
                    </mxGeometry>
                </mxCell>
                <mxCell id="117" value="" style="swimlane;swimlaneHead=0;swimlaneBody=0;fontStyle=0;connectable=0;fillColor=none;startSize=0;collapsible=0;recursiveResize=0;expand=0;rounded=1;fontSize=12;fontColor=#FFFF00;" vertex="1" parent="115">
                    <mxGeometry x="119" width="78" height="27" as="geometry">
                        <mxRectangle width="78" height="27" as="alternateBounds"/>
                    </mxGeometry>
                </mxCell>
                <mxCell id="118" value="" style="swimlane;swimlaneHead=0;swimlaneBody=0;fontStyle=0;connectable=0;fillColor=none;startSize=0;collapsible=0;recursiveResize=0;expand=0;rounded=1;fontSize=12;fontColor=#FFFF00;" vertex="1" parent="115">
                    <mxGeometry x="197" width="78" height="27" as="geometry">
                        <mxRectangle width="78" height="27" as="alternateBounds"/>
                    </mxGeometry>
                </mxCell>
                <mxCell id="119" value="" style="swimlane;swimlaneHead=0;swimlaneBody=0;fontStyle=0;connectable=0;fillColor=none;startSize=0;collapsible=0;recursiveResize=0;expand=0;rounded=1;fontSize=12;fontColor=#FFFF00;" vertex="1" parent="115">
                    <mxGeometry x="275" width="78" height="27" as="geometry">
                        <mxRectangle width="78" height="27" as="alternateBounds"/>
                    </mxGeometry>
                </mxCell>
                <mxCell id="120" value="" style="swimlane;swimlaneHead=0;swimlaneBody=0;fontStyle=0;connectable=0;fillColor=none;startSize=0;collapsible=0;recursiveResize=0;expand=0;rounded=1;fontSize=12;fontColor=#FFFF00;" vertex="1" parent="115">
                    <mxGeometry x="353" width="79" height="27" as="geometry">
                        <mxRectangle width="79" height="27" as="alternateBounds"/>
                    </mxGeometry>
                </mxCell>
                <mxCell id="121" value="" style="swimlane;swimlaneHead=0;swimlaneBody=0;fontStyle=0;connectable=0;fillColor=none;startSize=0;collapsible=0;recursiveResize=0;expand=0;rounded=1;fontSize=12;fontColor=#FFFF00;" vertex="1" parent="115">
                    <mxGeometry x="432" width="78" height="27" as="geometry">
                        <mxRectangle width="78" height="27" as="alternateBounds"/>
                    </mxGeometry>
                </mxCell>
                <mxCell id="122" value="" style="swimlane;swimlaneHead=0;swimlaneBody=0;fontStyle=0;connectable=0;fillColor=none;startSize=0;collapsible=0;recursiveResize=0;expand=0;rounded=1;fontSize=12;fontColor=#FFFF00;" vertex="1" parent="115">
                    <mxGeometry x="510" width="13" height="27" as="geometry">
                        <mxRectangle width="13" height="27" as="alternateBounds"/>
                    </mxGeometry>
                </mxCell>
                <mxCell id="123" value="" style="swimlane;swimlaneHead=0;swimlaneBody=0;fontStyle=0;connectable=0;fillColor=none;startSize=0;collapsible=0;recursiveResize=0;expand=0;rounded=1;fontSize=12;fontColor=#FFFF00;" vertex="1" parent="115">
                    <mxGeometry x="523" width="145" height="27" as="geometry">
                        <mxRectangle width="145" height="27" as="alternateBounds"/>
                    </mxGeometry>
                </mxCell>
                <mxCell id="124" value="" style="swimlane;swimlaneHead=0;swimlaneBody=0;fontStyle=0;connectable=0;fillColor=none;startSize=0;collapsible=0;recursiveResize=0;expand=0;rounded=1;fontSize=12;fontColor=#FFFF00;" vertex="1" parent="115">
                    <mxGeometry x="668" width="78" height="27" as="geometry">
                        <mxRectangle width="78" height="27" as="alternateBounds"/>
                    </mxGeometry>
                </mxCell>
                <mxCell id="125" value="" style="swimlane;swimlaneHead=0;swimlaneBody=0;fontStyle=0;connectable=0;fillColor=none;startSize=0;collapsible=0;recursiveResize=0;expand=0;rounded=1;fontSize=12;fontColor=#FFFF00;" vertex="1" parent="115">
                    <mxGeometry x="746" width="78" height="27" as="geometry">
                        <mxRectangle width="78" height="27" as="alternateBounds"/>
                    </mxGeometry>
                </mxCell>
                <mxCell id="126" value="" style="swimlane;swimlaneHead=0;swimlaneBody=0;fontStyle=0;connectable=0;fillColor=none;startSize=0;collapsible=0;recursiveResize=0;expand=0;rounded=1;fontSize=12;fontColor=#FFFF00;" vertex="1" parent="115">
                    <mxGeometry x="824" width="78" height="27" as="geometry">
                        <mxRectangle width="78" height="27" as="alternateBounds"/>
                    </mxGeometry>
                </mxCell>
                <mxCell id="127" value="" style="swimlane;swimlaneHead=0;swimlaneBody=0;fontStyle=0;connectable=0;fillColor=none;startSize=0;collapsible=0;recursiveResize=0;expand=0;rounded=1;fontSize=12;fontColor=#FFFF00;" vertex="1" parent="115">
                    <mxGeometry x="902" width="79" height="27" as="geometry">
                        <mxRectangle width="79" height="27" as="alternateBounds"/>
                    </mxGeometry>
                </mxCell>
                <mxCell id="128" value="" style="swimlane;swimlaneHead=0;swimlaneBody=0;fontStyle=0;connectable=0;fillColor=none;startSize=0;collapsible=0;recursiveResize=0;expand=0;rounded=1;fontSize=12;fontColor=#FFFF00;" vertex="1" parent="115">
                    <mxGeometry x="981" width="79" height="27" as="geometry">
                        <mxRectangle width="79" height="27" as="alternateBounds"/>
                    </mxGeometry>
                </mxCell>
                <mxCell id="129" value="" style="swimlane;swimlaneHead=0;swimlaneBody=0;fontStyle=0;connectable=0;fillColor=none;startSize=0;collapsible=0;recursiveResize=0;expand=0;rounded=1;fontSize=12;fontColor=#FFFF00;" vertex="1" parent="115">
                    <mxGeometry x="1060" width="78" height="27" as="geometry">
                        <mxRectangle width="78" height="27" as="alternateBounds"/>
                    </mxGeometry>
                </mxCell>
                <mxCell id="130" value="" style="swimlane;swimlaneHead=0;swimlaneBody=0;fontStyle=0;connectable=0;fillColor=none;startSize=0;collapsible=0;recursiveResize=0;expand=0;rounded=1;fontSize=12;fontColor=#FFFF00;" vertex="1" parent="115">
                    <mxGeometry x="1138" width="79" height="27" as="geometry">
                        <mxRectangle width="79" height="27" as="alternateBounds"/>
                    </mxGeometry>
                </mxCell>
                <mxCell id="131" value="" style="swimlane;swimlaneHead=0;swimlaneBody=0;fontStyle=0;connectable=0;fillColor=none;startSize=0;collapsible=0;recursiveResize=0;expand=0;rounded=1;fontSize=12;fontColor=#FFFF00;" vertex="1" parent="115">
                    <mxGeometry x="1217" width="78" height="27" as="geometry">
                        <mxRectangle width="78" height="27" as="alternateBounds"/>
                    </mxGeometry>
                </mxCell>
                <mxCell id="132" value="" style="swimlane;swimlaneHead=0;swimlaneBody=0;fontStyle=0;connectable=0;fillColor=none;startSize=0;collapsible=0;recursiveResize=0;expand=0;rounded=1;fontSize=12;fontColor=#FFFF00;" vertex="1" parent="115">
                    <mxGeometry x="1295" width="78" height="27" as="geometry">
                        <mxRectangle width="78" height="27" as="alternateBounds"/>
                    </mxGeometry>
                </mxCell>
                <mxCell id="133" value="" style="swimlane;swimlaneHead=0;swimlaneBody=0;fontStyle=0;connectable=0;fillColor=none;startSize=0;collapsible=0;recursiveResize=0;expand=0;rounded=1;fontSize=12;fontColor=#FFFF00;" vertex="1" parent="115">
                    <mxGeometry x="1373" width="78" height="27" as="geometry">
                        <mxRectangle width="78" height="27" as="alternateBounds"/>
                    </mxGeometry>
                </mxCell>
                <mxCell id="134" value="" style="swimlane;swimlaneHead=0;swimlaneBody=0;fontStyle=0;connectable=0;fillColor=none;startSize=0;collapsible=0;recursiveResize=0;expand=0;rounded=1;fontSize=12;fontColor=#FFFF00;" vertex="1" parent="115">
                    <mxGeometry x="1451" width="79" height="27" as="geometry">
                        <mxRectangle width="79" height="27" as="alternateBounds"/>
                    </mxGeometry>
                </mxCell>
                <mxCell id="135" value="" style="shape=tableRow;horizontal=0;swimlaneHead=0;swimlaneBody=0;top=0;left=0;bottom=0;right=0;dropTarget=0;fontStyle=0;fillColor=none;points=[[0,0.5],[1,0.5]];portConstraint=eastwest;startSize=40;collapsible=0;recursiveResize=0;expand=0;rounded=1;fontSize=12;fontColor=#FFFF00;" vertex="1" parent="34">
                    <mxGeometry y="177" width="1530" height="28" as="geometry"/>
                </mxCell>
                <mxCell id="136" value="" style="swimlane;swimlaneHead=0;swimlaneBody=0;fontStyle=0;connectable=0;fillColor=none;startSize=0;collapsible=0;recursiveResize=0;expand=0;rounded=1;fontSize=12;fontColor=#FFFF00;" vertex="1" parent="135">
                    <mxGeometry x="40" width="79" height="28" as="geometry">
                        <mxRectangle width="79" height="28" as="alternateBounds"/>
                    </mxGeometry>
                </mxCell>
                <mxCell id="137" value="" style="swimlane;swimlaneHead=0;swimlaneBody=0;fontStyle=0;connectable=0;fillColor=none;startSize=0;collapsible=0;recursiveResize=0;expand=0;rounded=1;fontSize=12;fontColor=#FFFF00;" vertex="1" parent="135">
                    <mxGeometry x="119" width="78" height="28" as="geometry">
                        <mxRectangle width="78" height="28" as="alternateBounds"/>
                    </mxGeometry>
                </mxCell>
                <mxCell id="138" value="" style="swimlane;swimlaneHead=0;swimlaneBody=0;fontStyle=0;connectable=0;fillColor=none;startSize=0;collapsible=0;recursiveResize=0;expand=0;rounded=1;fontSize=12;fontColor=#FFFF00;" vertex="1" parent="135">
                    <mxGeometry x="197" width="78" height="28" as="geometry">
                        <mxRectangle width="78" height="28" as="alternateBounds"/>
                    </mxGeometry>
                </mxCell>
                <mxCell id="139" value="" style="swimlane;swimlaneHead=0;swimlaneBody=0;fontStyle=0;connectable=0;fillColor=none;startSize=0;collapsible=0;recursiveResize=0;expand=0;rounded=1;fontSize=12;fontColor=#FFFF00;" vertex="1" parent="135">
                    <mxGeometry x="275" width="78" height="28" as="geometry">
                        <mxRectangle width="78" height="28" as="alternateBounds"/>
                    </mxGeometry>
                </mxCell>
                <mxCell id="140" value="" style="swimlane;swimlaneHead=0;swimlaneBody=0;fontStyle=0;connectable=0;fillColor=none;startSize=0;collapsible=0;recursiveResize=0;expand=0;rounded=1;fontSize=12;fontColor=#FFFF00;" vertex="1" parent="135">
                    <mxGeometry x="353" width="79" height="28" as="geometry">
                        <mxRectangle width="79" height="28" as="alternateBounds"/>
                    </mxGeometry>
                </mxCell>
                <mxCell id="141" value="" style="swimlane;swimlaneHead=0;swimlaneBody=0;fontStyle=0;connectable=0;fillColor=none;startSize=0;collapsible=0;recursiveResize=0;expand=0;rounded=1;fontSize=12;fontColor=#FFFF00;" vertex="1" parent="135">
                    <mxGeometry x="432" width="78" height="28" as="geometry">
                        <mxRectangle width="78" height="28" as="alternateBounds"/>
                    </mxGeometry>
                </mxCell>
                <mxCell id="142" value="" style="swimlane;swimlaneHead=0;swimlaneBody=0;fontStyle=0;connectable=0;fillColor=none;startSize=0;collapsible=0;recursiveResize=0;expand=0;rounded=1;fontSize=12;fontColor=#FFFF00;" vertex="1" parent="135">
                    <mxGeometry x="510" width="13" height="28" as="geometry">
                        <mxRectangle width="13" height="28" as="alternateBounds"/>
                    </mxGeometry>
                </mxCell>
                <mxCell id="143" value="" style="swimlane;swimlaneHead=0;swimlaneBody=0;fontStyle=0;connectable=0;fillColor=none;startSize=0;collapsible=0;recursiveResize=0;expand=0;rounded=1;fontSize=12;fontColor=#FFFF00;" vertex="1" parent="135">
                    <mxGeometry x="523" width="145" height="28" as="geometry">
                        <mxRectangle width="145" height="28" as="alternateBounds"/>
                    </mxGeometry>
                </mxCell>
                <mxCell id="144" value="" style="swimlane;swimlaneHead=0;swimlaneBody=0;fontStyle=0;connectable=0;fillColor=none;startSize=0;collapsible=0;recursiveResize=0;expand=0;rounded=1;fontSize=12;fontColor=#FFFF00;" vertex="1" parent="135">
                    <mxGeometry x="668" width="78" height="28" as="geometry">
                        <mxRectangle width="78" height="28" as="alternateBounds"/>
                    </mxGeometry>
                </mxCell>
                <mxCell id="145" value="" style="swimlane;swimlaneHead=0;swimlaneBody=0;fontStyle=0;connectable=0;fillColor=none;startSize=0;collapsible=0;recursiveResize=0;expand=0;rounded=1;fontSize=12;fontColor=#FFFF00;" vertex="1" parent="135">
                    <mxGeometry x="746" width="78" height="28" as="geometry">
                        <mxRectangle width="78" height="28" as="alternateBounds"/>
                    </mxGeometry>
                </mxCell>
                <mxCell id="146" value="" style="swimlane;swimlaneHead=0;swimlaneBody=0;fontStyle=0;connectable=0;fillColor=none;startSize=0;collapsible=0;recursiveResize=0;expand=0;rounded=1;fontSize=12;fontColor=#FFFF00;" vertex="1" parent="135">
                    <mxGeometry x="824" width="78" height="28" as="geometry">
                        <mxRectangle width="78" height="28" as="alternateBounds"/>
                    </mxGeometry>
                </mxCell>
                <mxCell id="147" value="" style="swimlane;swimlaneHead=0;swimlaneBody=0;fontStyle=0;connectable=0;fillColor=none;startSize=0;collapsible=0;recursiveResize=0;expand=0;rounded=1;fontSize=12;fontColor=#FFFF00;" vertex="1" parent="135">
                    <mxGeometry x="902" width="79" height="28" as="geometry">
                        <mxRectangle width="79" height="28" as="alternateBounds"/>
                    </mxGeometry>
                </mxCell>
                <mxCell id="148" value="" style="swimlane;swimlaneHead=0;swimlaneBody=0;fontStyle=0;connectable=0;fillColor=none;startSize=0;collapsible=0;recursiveResize=0;expand=0;rounded=1;fontSize=12;fontColor=#FFFF00;" vertex="1" parent="135">
                    <mxGeometry x="981" width="79" height="28" as="geometry">
                        <mxRectangle width="79" height="28" as="alternateBounds"/>
                    </mxGeometry>
                </mxCell>
                <mxCell id="149" value="" style="swimlane;swimlaneHead=0;swimlaneBody=0;fontStyle=0;connectable=0;fillColor=none;startSize=0;collapsible=0;recursiveResize=0;expand=0;rounded=1;fontSize=12;fontColor=#FFFF00;" vertex="1" parent="135">
                    <mxGeometry x="1060" width="78" height="28" as="geometry">
                        <mxRectangle width="78" height="28" as="alternateBounds"/>
                    </mxGeometry>
                </mxCell>
                <mxCell id="150" value="" style="swimlane;swimlaneHead=0;swimlaneBody=0;fontStyle=0;connectable=0;fillColor=none;startSize=0;collapsible=0;recursiveResize=0;expand=0;rounded=1;fontSize=12;fontColor=#FFFF00;" vertex="1" parent="135">
                    <mxGeometry x="1138" width="79" height="28" as="geometry">
                        <mxRectangle width="79" height="28" as="alternateBounds"/>
                    </mxGeometry>
                </mxCell>
                <mxCell id="151" value="" style="swimlane;swimlaneHead=0;swimlaneBody=0;fontStyle=0;connectable=0;fillColor=none;startSize=0;collapsible=0;recursiveResize=0;expand=0;rounded=1;fontSize=12;fontColor=#FFFF00;" vertex="1" parent="135">
                    <mxGeometry x="1217" width="78" height="28" as="geometry">
                        <mxRectangle width="78" height="28" as="alternateBounds"/>
                    </mxGeometry>
                </mxCell>
                <mxCell id="152" value="" style="swimlane;swimlaneHead=0;swimlaneBody=0;fontStyle=0;connectable=0;fillColor=none;startSize=0;collapsible=0;recursiveResize=0;expand=0;rounded=1;fontSize=12;fontColor=#FFFF00;" vertex="1" parent="135">
                    <mxGeometry x="1295" width="78" height="28" as="geometry">
                        <mxRectangle width="78" height="28" as="alternateBounds"/>
                    </mxGeometry>
                </mxCell>
                <mxCell id="153" value="" style="swimlane;swimlaneHead=0;swimlaneBody=0;fontStyle=0;connectable=0;fillColor=none;startSize=0;collapsible=0;recursiveResize=0;expand=0;rounded=1;fontSize=12;fontColor=#FFFF00;" vertex="1" parent="135">
                    <mxGeometry x="1373" width="78" height="28" as="geometry">
                        <mxRectangle width="78" height="28" as="alternateBounds"/>
                    </mxGeometry>
                </mxCell>
                <mxCell id="154" value="" style="swimlane;swimlaneHead=0;swimlaneBody=0;fontStyle=0;connectable=0;fillColor=none;startSize=0;collapsible=0;recursiveResize=0;expand=0;rounded=1;fontSize=12;fontColor=#FFFF00;" vertex="1" parent="135">
                    <mxGeometry x="1451" width="79" height="28" as="geometry">
                        <mxRectangle width="79" height="28" as="alternateBounds"/>
                    </mxGeometry>
                </mxCell>
                <mxCell id="155" value="" style="shape=tableRow;horizontal=0;swimlaneHead=0;swimlaneBody=0;top=0;left=0;bottom=0;right=0;dropTarget=0;fontStyle=0;fillColor=none;points=[[0,0.5],[1,0.5]];portConstraint=eastwest;startSize=40;collapsible=0;recursiveResize=0;expand=0;rounded=1;fontSize=12;fontColor=#FFFF00;" vertex="1" parent="34">
                    <mxGeometry y="205" width="1530" height="28" as="geometry"/>
                </mxCell>
                <mxCell id="156" value="" style="swimlane;swimlaneHead=0;swimlaneBody=0;fontStyle=0;connectable=0;fillColor=none;startSize=0;collapsible=0;recursiveResize=0;expand=0;rounded=1;fontSize=12;fontColor=#FFFF00;" vertex="1" parent="155">
                    <mxGeometry x="40" width="79" height="28" as="geometry">
                        <mxRectangle width="79" height="28" as="alternateBounds"/>
                    </mxGeometry>
                </mxCell>
                <mxCell id="157" value="" style="swimlane;swimlaneHead=0;swimlaneBody=0;fontStyle=0;connectable=0;fillColor=none;startSize=0;collapsible=0;recursiveResize=0;expand=0;rounded=1;fontSize=12;fontColor=#FFFF00;" vertex="1" parent="155">
                    <mxGeometry x="119" width="78" height="28" as="geometry">
                        <mxRectangle width="78" height="28" as="alternateBounds"/>
                    </mxGeometry>
                </mxCell>
                <mxCell id="158" value="" style="swimlane;swimlaneHead=0;swimlaneBody=0;fontStyle=0;connectable=0;fillColor=none;startSize=0;collapsible=0;recursiveResize=0;expand=0;rounded=1;fontSize=12;fontColor=#FFFF00;" vertex="1" parent="155">
                    <mxGeometry x="197" width="78" height="28" as="geometry">
                        <mxRectangle width="78" height="28" as="alternateBounds"/>
                    </mxGeometry>
                </mxCell>
                <mxCell id="159" value="" style="swimlane;swimlaneHead=0;swimlaneBody=0;fontStyle=0;connectable=0;fillColor=none;startSize=0;collapsible=0;recursiveResize=0;expand=0;rounded=1;fontSize=12;fontColor=#FFFF00;" vertex="1" parent="155">
                    <mxGeometry x="275" width="78" height="28" as="geometry">
                        <mxRectangle width="78" height="28" as="alternateBounds"/>
                    </mxGeometry>
                </mxCell>
                <mxCell id="160" value="" style="swimlane;swimlaneHead=0;swimlaneBody=0;fontStyle=0;connectable=0;fillColor=none;startSize=0;collapsible=0;recursiveResize=0;expand=0;rounded=1;fontSize=12;fontColor=#FFFF00;" vertex="1" parent="155">
                    <mxGeometry x="353" width="79" height="28" as="geometry">
                        <mxRectangle width="79" height="28" as="alternateBounds"/>
                    </mxGeometry>
                </mxCell>
                <mxCell id="161" value="" style="swimlane;swimlaneHead=0;swimlaneBody=0;fontStyle=0;connectable=0;fillColor=none;startSize=0;collapsible=0;recursiveResize=0;expand=0;rounded=1;fontSize=12;fontColor=#FFFF00;" vertex="1" parent="155">
                    <mxGeometry x="432" width="78" height="28" as="geometry">
                        <mxRectangle width="78" height="28" as="alternateBounds"/>
                    </mxGeometry>
                </mxCell>
                <mxCell id="162" value="" style="swimlane;swimlaneHead=0;swimlaneBody=0;fontStyle=0;connectable=0;fillColor=none;startSize=0;collapsible=0;recursiveResize=0;expand=0;rounded=1;fontSize=12;fontColor=#FFFF00;" vertex="1" parent="155">
                    <mxGeometry x="510" width="13" height="28" as="geometry">
                        <mxRectangle width="13" height="28" as="alternateBounds"/>
                    </mxGeometry>
                </mxCell>
                <mxCell id="163" value="" style="swimlane;swimlaneHead=0;swimlaneBody=0;fontStyle=0;connectable=0;fillColor=none;startSize=0;collapsible=0;recursiveResize=0;expand=0;rounded=1;fontSize=12;fontColor=#FFFF00;" vertex="1" parent="155">
                    <mxGeometry x="523" width="145" height="28" as="geometry">
                        <mxRectangle width="145" height="28" as="alternateBounds"/>
                    </mxGeometry>
                </mxCell>
                <mxCell id="164" value="" style="swimlane;swimlaneHead=0;swimlaneBody=0;fontStyle=0;connectable=0;fillColor=none;startSize=0;collapsible=0;recursiveResize=0;expand=0;rounded=1;fontSize=12;fontColor=#FFFF00;" vertex="1" parent="155">
                    <mxGeometry x="668" width="78" height="28" as="geometry">
                        <mxRectangle width="78" height="28" as="alternateBounds"/>
                    </mxGeometry>
                </mxCell>
                <mxCell id="165" value="" style="swimlane;swimlaneHead=0;swimlaneBody=0;fontStyle=0;connectable=0;fillColor=none;startSize=0;collapsible=0;recursiveResize=0;expand=0;rounded=1;fontSize=12;fontColor=#FFFF00;" vertex="1" parent="155">
                    <mxGeometry x="746" width="78" height="28" as="geometry">
                        <mxRectangle width="78" height="28" as="alternateBounds"/>
                    </mxGeometry>
                </mxCell>
                <mxCell id="166" value="" style="swimlane;swimlaneHead=0;swimlaneBody=0;fontStyle=0;connectable=0;fillColor=none;startSize=0;collapsible=0;recursiveResize=0;expand=0;rounded=1;fontSize=12;fontColor=#FFFF00;" vertex="1" parent="155">
                    <mxGeometry x="824" width="78" height="28" as="geometry">
                        <mxRectangle width="78" height="28" as="alternateBounds"/>
                    </mxGeometry>
                </mxCell>
                <mxCell id="167" value="" style="swimlane;swimlaneHead=0;swimlaneBody=0;fontStyle=0;connectable=0;fillColor=none;startSize=0;collapsible=0;recursiveResize=0;expand=0;rounded=1;fontSize=12;fontColor=#FFFF00;" vertex="1" parent="155">
                    <mxGeometry x="902" width="79" height="28" as="geometry">
                        <mxRectangle width="79" height="28" as="alternateBounds"/>
                    </mxGeometry>
                </mxCell>
                <mxCell id="168" value="" style="swimlane;swimlaneHead=0;swimlaneBody=0;fontStyle=0;connectable=0;fillColor=none;startSize=0;collapsible=0;recursiveResize=0;expand=0;rounded=1;fontSize=12;fontColor=#FFFF00;" vertex="1" parent="155">
                    <mxGeometry x="981" width="79" height="28" as="geometry">
                        <mxRectangle width="79" height="28" as="alternateBounds"/>
                    </mxGeometry>
                </mxCell>
                <mxCell id="169" value="" style="swimlane;swimlaneHead=0;swimlaneBody=0;fontStyle=0;connectable=0;fillColor=none;startSize=0;collapsible=0;recursiveResize=0;expand=0;rounded=1;fontSize=12;fontColor=#FFFF00;" vertex="1" parent="155">
                    <mxGeometry x="1060" width="78" height="28" as="geometry">
                        <mxRectangle width="78" height="28" as="alternateBounds"/>
                    </mxGeometry>
                </mxCell>
                <mxCell id="170" value="" style="swimlane;swimlaneHead=0;swimlaneBody=0;fontStyle=0;connectable=0;fillColor=none;startSize=0;collapsible=0;recursiveResize=0;expand=0;rounded=1;fontSize=12;fontColor=#FFFF00;" vertex="1" parent="155">
                    <mxGeometry x="1138" width="79" height="28" as="geometry">
                        <mxRectangle width="79" height="28" as="alternateBounds"/>
                    </mxGeometry>
                </mxCell>
                <mxCell id="171" value="" style="swimlane;swimlaneHead=0;swimlaneBody=0;fontStyle=0;connectable=0;fillColor=none;startSize=0;collapsible=0;recursiveResize=0;expand=0;rounded=1;fontSize=12;fontColor=#FFFF00;" vertex="1" parent="155">
                    <mxGeometry x="1217" width="78" height="28" as="geometry">
                        <mxRectangle width="78" height="28" as="alternateBounds"/>
                    </mxGeometry>
                </mxCell>
                <mxCell id="172" value="" style="swimlane;swimlaneHead=0;swimlaneBody=0;fontStyle=0;connectable=0;fillColor=none;startSize=0;collapsible=0;recursiveResize=0;expand=0;rounded=1;fontSize=12;fontColor=#FFFF00;" vertex="1" parent="155">
                    <mxGeometry x="1295" width="78" height="28" as="geometry">
                        <mxRectangle width="78" height="28" as="alternateBounds"/>
                    </mxGeometry>
                </mxCell>
                <mxCell id="173" value="" style="swimlane;swimlaneHead=0;swimlaneBody=0;fontStyle=0;connectable=0;fillColor=none;startSize=0;collapsible=0;recursiveResize=0;expand=0;rounded=1;fontSize=12;fontColor=#FFFF00;" vertex="1" parent="155">
                    <mxGeometry x="1373" width="78" height="28" as="geometry">
                        <mxRectangle width="78" height="28" as="alternateBounds"/>
                    </mxGeometry>
                </mxCell>
                <mxCell id="174" value="" style="swimlane;swimlaneHead=0;swimlaneBody=0;fontStyle=0;connectable=0;fillColor=none;startSize=0;collapsible=0;recursiveResize=0;expand=0;rounded=1;fontSize=12;fontColor=#FFFF00;" vertex="1" parent="155">
                    <mxGeometry x="1451" width="79" height="28" as="geometry">
                        <mxRectangle width="79" height="28" as="alternateBounds"/>
                    </mxGeometry>
                </mxCell>
                <mxCell id="175" value="" style="shape=tableRow;horizontal=0;swimlaneHead=0;swimlaneBody=0;top=0;left=0;bottom=0;right=0;dropTarget=0;fontStyle=0;fillColor=none;points=[[0,0.5],[1,0.5]];portConstraint=eastwest;startSize=40;collapsible=0;recursiveResize=0;expand=0;rounded=1;fontSize=12;fontColor=#FFFF00;" vertex="1" parent="34">
                    <mxGeometry y="233" width="1530" height="57" as="geometry"/>
                </mxCell>
                <mxCell id="176" value="" style="swimlane;swimlaneHead=0;swimlaneBody=0;fontStyle=0;connectable=0;fillColor=none;startSize=0;collapsible=0;recursiveResize=0;expand=0;rounded=1;fontSize=12;fontColor=#FFFF00;" vertex="1" parent="175">
                    <mxGeometry x="40" width="79" height="57" as="geometry">
                        <mxRectangle width="79" height="57" as="alternateBounds"/>
                    </mxGeometry>
                </mxCell>
                <mxCell id="177" value="" style="swimlane;swimlaneHead=0;swimlaneBody=0;fontStyle=0;connectable=0;fillColor=none;startSize=0;collapsible=0;recursiveResize=0;expand=0;rounded=1;fontSize=12;fontColor=#FFFF00;" vertex="1" parent="175">
                    <mxGeometry x="119" width="78" height="57" as="geometry">
                        <mxRectangle width="78" height="57" as="alternateBounds"/>
                    </mxGeometry>
                </mxCell>
                <mxCell id="178" value="" style="swimlane;swimlaneHead=0;swimlaneBody=0;fontStyle=0;connectable=0;fillColor=none;startSize=0;collapsible=0;recursiveResize=0;expand=0;rounded=1;fontSize=12;fontColor=#FFFF00;" vertex="1" parent="175">
                    <mxGeometry x="197" width="78" height="57" as="geometry">
                        <mxRectangle width="78" height="57" as="alternateBounds"/>
                    </mxGeometry>
                </mxCell>
                <mxCell id="179" value="" style="swimlane;swimlaneHead=0;swimlaneBody=0;fontStyle=0;connectable=0;fillColor=none;startSize=0;collapsible=0;recursiveResize=0;expand=0;rounded=1;fontSize=12;fontColor=#FFFF00;" vertex="1" parent="175">
                    <mxGeometry x="275" width="78" height="57" as="geometry">
                        <mxRectangle width="78" height="57" as="alternateBounds"/>
                    </mxGeometry>
                </mxCell>
                <mxCell id="180" value="" style="swimlane;swimlaneHead=0;swimlaneBody=0;fontStyle=0;connectable=0;fillColor=none;startSize=0;collapsible=0;recursiveResize=0;expand=0;rounded=1;fontSize=12;fontColor=#FFFF00;" vertex="1" parent="175">
                    <mxGeometry x="353" width="79" height="57" as="geometry">
                        <mxRectangle width="79" height="57" as="alternateBounds"/>
                    </mxGeometry>
                </mxCell>
                <mxCell id="181" value="" style="swimlane;swimlaneHead=0;swimlaneBody=0;fontStyle=0;connectable=0;fillColor=none;startSize=0;collapsible=0;recursiveResize=0;expand=0;rounded=1;fontSize=12;fontColor=#FFFF00;" vertex="1" parent="175">
                    <mxGeometry x="432" width="78" height="57" as="geometry">
                        <mxRectangle width="78" height="57" as="alternateBounds"/>
                    </mxGeometry>
                </mxCell>
                <mxCell id="182" value="" style="swimlane;swimlaneHead=0;swimlaneBody=0;fontStyle=0;connectable=0;fillColor=none;startSize=0;collapsible=0;recursiveResize=0;expand=0;rounded=1;fontSize=12;fontColor=#FFFF00;" vertex="1" parent="175">
                    <mxGeometry x="510" width="13" height="57" as="geometry">
                        <mxRectangle width="13" height="57" as="alternateBounds"/>
                    </mxGeometry>
                </mxCell>
                <mxCell id="183" value="" style="swimlane;swimlaneHead=0;swimlaneBody=0;fontStyle=0;connectable=0;fillColor=none;startSize=0;collapsible=0;recursiveResize=0;expand=0;rounded=1;fontSize=12;fontColor=#FFFF00;" vertex="1" parent="175">
                    <mxGeometry x="523" width="145" height="57" as="geometry">
                        <mxRectangle width="145" height="57" as="alternateBounds"/>
                    </mxGeometry>
                </mxCell>
                <mxCell id="184" value="" style="swimlane;swimlaneHead=0;swimlaneBody=0;fontStyle=0;connectable=0;fillColor=none;startSize=0;collapsible=0;recursiveResize=0;expand=0;rounded=1;fontSize=12;fontColor=#FFFF00;" vertex="1" parent="175">
                    <mxGeometry x="668" width="78" height="57" as="geometry">
                        <mxRectangle width="78" height="57" as="alternateBounds"/>
                    </mxGeometry>
                </mxCell>
                <mxCell id="185" value="" style="swimlane;swimlaneHead=0;swimlaneBody=0;fontStyle=0;connectable=0;fillColor=none;startSize=0;collapsible=0;recursiveResize=0;expand=0;rounded=1;fontSize=12;fontColor=#FFFF00;" vertex="1" parent="175">
                    <mxGeometry x="746" width="78" height="57" as="geometry">
                        <mxRectangle width="78" height="57" as="alternateBounds"/>
                    </mxGeometry>
                </mxCell>
                <mxCell id="186" value="" style="swimlane;swimlaneHead=0;swimlaneBody=0;fontStyle=0;connectable=0;fillColor=none;startSize=0;collapsible=0;recursiveResize=0;expand=0;rounded=1;fontSize=12;fontColor=#FFFF00;" vertex="1" parent="175">
                    <mxGeometry x="824" width="78" height="57" as="geometry">
                        <mxRectangle width="78" height="57" as="alternateBounds"/>
                    </mxGeometry>
                </mxCell>
                <mxCell id="187" value="" style="swimlane;swimlaneHead=0;swimlaneBody=0;fontStyle=0;connectable=0;fillColor=none;startSize=0;collapsible=0;recursiveResize=0;expand=0;rounded=1;fontSize=12;fontColor=#FFFF00;" vertex="1" parent="175">
                    <mxGeometry x="902" width="79" height="57" as="geometry">
                        <mxRectangle width="79" height="57" as="alternateBounds"/>
                    </mxGeometry>
                </mxCell>
                <mxCell id="188" value="" style="swimlane;swimlaneHead=0;swimlaneBody=0;fontStyle=0;connectable=0;fillColor=none;startSize=0;collapsible=0;recursiveResize=0;expand=0;rounded=1;fontSize=12;fontColor=#FFFF00;" vertex="1" parent="175">
                    <mxGeometry x="981" width="79" height="57" as="geometry">
                        <mxRectangle width="79" height="57" as="alternateBounds"/>
                    </mxGeometry>
                </mxCell>
                <mxCell id="189" value="" style="swimlane;swimlaneHead=0;swimlaneBody=0;fontStyle=0;connectable=0;fillColor=none;startSize=0;collapsible=0;recursiveResize=0;expand=0;rounded=1;fontSize=12;fontColor=#FFFF00;" vertex="1" parent="175">
                    <mxGeometry x="1060" width="78" height="57" as="geometry">
                        <mxRectangle width="78" height="57" as="alternateBounds"/>
                    </mxGeometry>
                </mxCell>
                <mxCell id="190" value="" style="swimlane;swimlaneHead=0;swimlaneBody=0;fontStyle=0;connectable=0;fillColor=none;startSize=0;collapsible=0;recursiveResize=0;expand=0;rounded=1;fontSize=12;fontColor=#FFFF00;" vertex="1" parent="175">
                    <mxGeometry x="1138" width="79" height="57" as="geometry">
                        <mxRectangle width="79" height="57" as="alternateBounds"/>
                    </mxGeometry>
                </mxCell>
                <mxCell id="191" value="" style="swimlane;swimlaneHead=0;swimlaneBody=0;fontStyle=0;connectable=0;fillColor=none;startSize=0;collapsible=0;recursiveResize=0;expand=0;rounded=1;fontSize=12;fontColor=#FFFF00;" vertex="1" parent="175">
                    <mxGeometry x="1217" width="78" height="57" as="geometry">
                        <mxRectangle width="78" height="57" as="alternateBounds"/>
                    </mxGeometry>
                </mxCell>
                <mxCell id="192" value="" style="swimlane;swimlaneHead=0;swimlaneBody=0;fontStyle=0;connectable=0;fillColor=none;startSize=0;collapsible=0;recursiveResize=0;expand=0;rounded=1;fontSize=12;fontColor=#FFFF00;" vertex="1" parent="175">
                    <mxGeometry x="1295" width="78" height="57" as="geometry">
                        <mxRectangle width="78" height="57" as="alternateBounds"/>
                    </mxGeometry>
                </mxCell>
                <mxCell id="193" value="" style="swimlane;swimlaneHead=0;swimlaneBody=0;fontStyle=0;connectable=0;fillColor=none;startSize=0;collapsible=0;recursiveResize=0;expand=0;rounded=1;fontSize=12;fontColor=#FFFF00;" vertex="1" parent="175">
                    <mxGeometry x="1373" width="78" height="57" as="geometry">
                        <mxRectangle width="78" height="57" as="alternateBounds"/>
                    </mxGeometry>
                </mxCell>
                <mxCell id="194" value="" style="swimlane;swimlaneHead=0;swimlaneBody=0;fontStyle=0;connectable=0;fillColor=none;startSize=0;collapsible=0;recursiveResize=0;expand=0;rounded=1;fontSize=12;fontColor=#FFFF00;" vertex="1" parent="175">
                    <mxGeometry x="1451" width="79" height="57" as="geometry">
                        <mxRectangle width="79" height="57" as="alternateBounds"/>
                    </mxGeometry>
                </mxCell>
                <mxCell id="195" value="" style="shape=tableRow;horizontal=0;swimlaneHead=0;swimlaneBody=0;top=0;left=0;bottom=0;right=0;dropTarget=0;fontStyle=0;fillColor=none;points=[[0,0.5],[1,0.5]];portConstraint=eastwest;startSize=40;collapsible=0;recursiveResize=0;expand=0;rounded=1;fontSize=12;fontColor=#FFFF00;" vertex="1" parent="34">
                    <mxGeometry y="290" width="1530" height="20" as="geometry"/>
                </mxCell>
                <mxCell id="196" value="" style="swimlane;swimlaneHead=0;swimlaneBody=0;fontStyle=0;connectable=0;fillColor=none;startSize=0;collapsible=0;recursiveResize=0;expand=0;rounded=1;fontSize=12;fontColor=#FFFF00;" vertex="1" parent="195">
                    <mxGeometry x="40" width="79" height="20" as="geometry">
                        <mxRectangle width="79" height="20" as="alternateBounds"/>
                    </mxGeometry>
                </mxCell>
                <mxCell id="197" value="" style="swimlane;swimlaneHead=0;swimlaneBody=0;fontStyle=0;connectable=0;fillColor=none;startSize=0;collapsible=0;recursiveResize=0;expand=0;rounded=1;fontSize=12;fontColor=#FFFF00;" vertex="1" parent="195">
                    <mxGeometry x="119" width="78" height="20" as="geometry">
                        <mxRectangle width="78" height="20" as="alternateBounds"/>
                    </mxGeometry>
                </mxCell>
                <mxCell id="198" value="" style="swimlane;swimlaneHead=0;swimlaneBody=0;fontStyle=0;connectable=0;fillColor=none;startSize=0;collapsible=0;recursiveResize=0;expand=0;rounded=1;fontSize=12;fontColor=#FFFF00;" vertex="1" parent="195">
                    <mxGeometry x="197" width="78" height="20" as="geometry">
                        <mxRectangle width="78" height="20" as="alternateBounds"/>
                    </mxGeometry>
                </mxCell>
                <mxCell id="199" value="" style="swimlane;swimlaneHead=0;swimlaneBody=0;fontStyle=0;connectable=0;fillColor=none;startSize=0;collapsible=0;recursiveResize=0;expand=0;rounded=1;fontSize=12;fontColor=#FFFF00;" vertex="1" parent="195">
                    <mxGeometry x="275" width="78" height="20" as="geometry">
                        <mxRectangle width="78" height="20" as="alternateBounds"/>
                    </mxGeometry>
                </mxCell>
                <mxCell id="200" value="" style="swimlane;swimlaneHead=0;swimlaneBody=0;fontStyle=0;connectable=0;fillColor=none;startSize=0;collapsible=0;recursiveResize=0;expand=0;rounded=1;fontSize=12;fontColor=#FFFF00;" vertex="1" parent="195">
                    <mxGeometry x="353" width="79" height="20" as="geometry">
                        <mxRectangle width="79" height="20" as="alternateBounds"/>
                    </mxGeometry>
                </mxCell>
                <mxCell id="201" value="" style="swimlane;swimlaneHead=0;swimlaneBody=0;fontStyle=0;connectable=0;fillColor=none;startSize=0;collapsible=0;recursiveResize=0;expand=0;rounded=1;fontSize=12;fontColor=#FFFF00;" vertex="1" parent="195">
                    <mxGeometry x="432" width="78" height="20" as="geometry">
                        <mxRectangle width="78" height="20" as="alternateBounds"/>
                    </mxGeometry>
                </mxCell>
                <mxCell id="202" value="" style="swimlane;swimlaneHead=0;swimlaneBody=0;fontStyle=0;connectable=0;fillColor=none;startSize=0;collapsible=0;recursiveResize=0;expand=0;rounded=1;fontSize=12;fontColor=#FFFF00;" vertex="1" parent="195">
                    <mxGeometry x="510" width="13" height="20" as="geometry">
                        <mxRectangle width="13" height="20" as="alternateBounds"/>
                    </mxGeometry>
                </mxCell>
                <mxCell id="203" value="" style="swimlane;swimlaneHead=0;swimlaneBody=0;fontStyle=0;connectable=0;fillColor=none;startSize=0;collapsible=0;recursiveResize=0;expand=0;rounded=1;fontSize=12;fontColor=#FFFF00;" vertex="1" parent="195">
                    <mxGeometry x="523" width="145" height="20" as="geometry">
                        <mxRectangle width="145" height="20" as="alternateBounds"/>
                    </mxGeometry>
                </mxCell>
                <mxCell id="204" value="" style="swimlane;swimlaneHead=0;swimlaneBody=0;fontStyle=0;connectable=0;fillColor=none;startSize=0;collapsible=0;recursiveResize=0;expand=0;rounded=1;fontSize=12;fontColor=#FFFF00;" vertex="1" parent="195">
                    <mxGeometry x="668" width="78" height="20" as="geometry">
                        <mxRectangle width="78" height="20" as="alternateBounds"/>
                    </mxGeometry>
                </mxCell>
                <mxCell id="205" value="" style="swimlane;swimlaneHead=0;swimlaneBody=0;fontStyle=0;connectable=0;fillColor=none;startSize=0;collapsible=0;recursiveResize=0;expand=0;rounded=1;fontSize=12;fontColor=#FFFF00;" vertex="1" parent="195">
                    <mxGeometry x="746" width="78" height="20" as="geometry">
                        <mxRectangle width="78" height="20" as="alternateBounds"/>
                    </mxGeometry>
                </mxCell>
                <mxCell id="206" value="" style="swimlane;swimlaneHead=0;swimlaneBody=0;fontStyle=0;connectable=0;fillColor=none;startSize=0;collapsible=0;recursiveResize=0;expand=0;rounded=1;fontSize=12;fontColor=#FFFF00;" vertex="1" parent="195">
                    <mxGeometry x="824" width="78" height="20" as="geometry">
                        <mxRectangle width="78" height="20" as="alternateBounds"/>
                    </mxGeometry>
                </mxCell>
                <mxCell id="207" value="" style="swimlane;swimlaneHead=0;swimlaneBody=0;fontStyle=0;connectable=0;fillColor=none;startSize=0;collapsible=0;recursiveResize=0;expand=0;rounded=1;fontSize=12;fontColor=#FFFF00;" vertex="1" parent="195">
                    <mxGeometry x="902" width="79" height="20" as="geometry">
                        <mxRectangle width="79" height="20" as="alternateBounds"/>
                    </mxGeometry>
                </mxCell>
                <mxCell id="208" value="" style="swimlane;swimlaneHead=0;swimlaneBody=0;fontStyle=0;connectable=0;fillColor=none;startSize=0;collapsible=0;recursiveResize=0;expand=0;rounded=1;fontSize=12;fontColor=#FFFF00;" vertex="1" parent="195">
                    <mxGeometry x="981" width="79" height="20" as="geometry">
                        <mxRectangle width="79" height="20" as="alternateBounds"/>
                    </mxGeometry>
                </mxCell>
                <mxCell id="209" value="" style="swimlane;swimlaneHead=0;swimlaneBody=0;fontStyle=0;connectable=0;fillColor=none;startSize=0;collapsible=0;recursiveResize=0;expand=0;rounded=1;fontSize=12;fontColor=#FFFF00;" vertex="1" parent="195">
                    <mxGeometry x="1060" width="78" height="20" as="geometry">
                        <mxRectangle width="78" height="20" as="alternateBounds"/>
                    </mxGeometry>
                </mxCell>
                <mxCell id="210" value="" style="swimlane;swimlaneHead=0;swimlaneBody=0;fontStyle=0;connectable=0;fillColor=none;startSize=0;collapsible=0;recursiveResize=0;expand=0;rounded=1;fontSize=12;fontColor=#FFFF00;" vertex="1" parent="195">
                    <mxGeometry x="1138" width="79" height="20" as="geometry">
                        <mxRectangle width="79" height="20" as="alternateBounds"/>
                    </mxGeometry>
                </mxCell>
                <mxCell id="211" value="" style="swimlane;swimlaneHead=0;swimlaneBody=0;fontStyle=0;connectable=0;fillColor=none;startSize=0;collapsible=0;recursiveResize=0;expand=0;rounded=1;fontSize=12;fontColor=#FFFF00;" vertex="1" parent="195">
                    <mxGeometry x="1217" width="78" height="20" as="geometry">
                        <mxRectangle width="78" height="20" as="alternateBounds"/>
                    </mxGeometry>
                </mxCell>
                <mxCell id="212" value="" style="swimlane;swimlaneHead=0;swimlaneBody=0;fontStyle=0;connectable=0;fillColor=none;startSize=0;collapsible=0;recursiveResize=0;expand=0;rounded=1;fontSize=12;fontColor=#FFFF00;" vertex="1" parent="195">
                    <mxGeometry x="1295" width="78" height="20" as="geometry">
                        <mxRectangle width="78" height="20" as="alternateBounds"/>
                    </mxGeometry>
                </mxCell>
                <mxCell id="213" value="" style="swimlane;swimlaneHead=0;swimlaneBody=0;fontStyle=0;connectable=0;fillColor=none;startSize=0;collapsible=0;recursiveResize=0;expand=0;rounded=1;fontSize=12;fontColor=#FFFF00;" vertex="1" parent="195">
                    <mxGeometry x="1373" width="78" height="20" as="geometry">
                        <mxRectangle width="78" height="20" as="alternateBounds"/>
                    </mxGeometry>
                </mxCell>
                <mxCell id="214" value="" style="swimlane;swimlaneHead=0;swimlaneBody=0;fontStyle=0;connectable=0;fillColor=none;startSize=0;collapsible=0;recursiveResize=0;expand=0;rounded=1;fontSize=12;fontColor=#FFFF00;" vertex="1" parent="195">
                    <mxGeometry x="1451" width="79" height="20" as="geometry">
                        <mxRectangle width="79" height="20" as="alternateBounds"/>
                    </mxGeometry>
                </mxCell>
                <mxCell id="215" value="" style="shape=tableRow;horizontal=0;swimlaneHead=0;swimlaneBody=0;top=0;left=0;bottom=0;right=0;dropTarget=0;fontStyle=0;fillColor=none;points=[[0,0.5],[1,0.5]];portConstraint=eastwest;startSize=40;collapsible=0;recursiveResize=0;expand=0;rounded=1;fontSize=12;fontColor=#FFFF00;" vertex="1" parent="34">
                    <mxGeometry y="310" width="1530" height="27" as="geometry"/>
                </mxCell>
                <mxCell id="216" value="" style="swimlane;swimlaneHead=0;swimlaneBody=0;fontStyle=0;connectable=0;fillColor=none;startSize=0;collapsible=0;recursiveResize=0;expand=0;rounded=1;fontSize=12;fontColor=#FFFF00;" vertex="1" parent="215">
                    <mxGeometry x="40" width="79" height="27" as="geometry">
                        <mxRectangle width="79" height="27" as="alternateBounds"/>
                    </mxGeometry>
                </mxCell>
                <mxCell id="217" value="" style="swimlane;swimlaneHead=0;swimlaneBody=0;fontStyle=0;connectable=0;fillColor=none;startSize=0;collapsible=0;recursiveResize=0;expand=0;rounded=1;fontSize=12;fontColor=#FFFF00;" vertex="1" parent="215">
                    <mxGeometry x="119" width="78" height="27" as="geometry">
                        <mxRectangle width="78" height="27" as="alternateBounds"/>
                    </mxGeometry>
                </mxCell>
                <mxCell id="218" value="" style="swimlane;swimlaneHead=0;swimlaneBody=0;fontStyle=0;connectable=0;fillColor=none;startSize=0;collapsible=0;recursiveResize=0;expand=0;rounded=1;fontSize=12;fontColor=#FFFF00;" vertex="1" parent="215">
                    <mxGeometry x="197" width="78" height="27" as="geometry">
                        <mxRectangle width="78" height="27" as="alternateBounds"/>
                    </mxGeometry>
                </mxCell>
                <mxCell id="219" value="" style="swimlane;swimlaneHead=0;swimlaneBody=0;fontStyle=0;connectable=0;fillColor=none;startSize=0;collapsible=0;recursiveResize=0;expand=0;rounded=1;fontSize=12;fontColor=#FFFF00;" vertex="1" parent="215">
                    <mxGeometry x="275" width="78" height="27" as="geometry">
                        <mxRectangle width="78" height="27" as="alternateBounds"/>
                    </mxGeometry>
                </mxCell>
                <mxCell id="220" value="" style="swimlane;swimlaneHead=0;swimlaneBody=0;fontStyle=0;connectable=0;fillColor=none;startSize=0;collapsible=0;recursiveResize=0;expand=0;rounded=1;fontSize=12;fontColor=#FFFF00;" vertex="1" parent="215">
                    <mxGeometry x="353" width="79" height="27" as="geometry">
                        <mxRectangle width="79" height="27" as="alternateBounds"/>
                    </mxGeometry>
                </mxCell>
                <mxCell id="221" value="" style="swimlane;swimlaneHead=0;swimlaneBody=0;fontStyle=0;connectable=0;fillColor=none;startSize=0;collapsible=0;recursiveResize=0;expand=0;rounded=1;fontSize=12;fontColor=#FFFF00;" vertex="1" parent="215">
                    <mxGeometry x="432" width="78" height="27" as="geometry">
                        <mxRectangle width="78" height="27" as="alternateBounds"/>
                    </mxGeometry>
                </mxCell>
                <mxCell id="222" value="" style="swimlane;swimlaneHead=0;swimlaneBody=0;fontStyle=0;connectable=0;fillColor=none;startSize=0;collapsible=0;recursiveResize=0;expand=0;rounded=1;fontSize=12;fontColor=#FFFF00;" vertex="1" parent="215">
                    <mxGeometry x="510" width="13" height="27" as="geometry">
                        <mxRectangle width="13" height="27" as="alternateBounds"/>
                    </mxGeometry>
                </mxCell>
                <mxCell id="223" value="" style="swimlane;swimlaneHead=0;swimlaneBody=0;fontStyle=0;connectable=0;fillColor=none;startSize=0;collapsible=0;recursiveResize=0;expand=0;rounded=1;fontSize=12;fontColor=#FFFF00;" vertex="1" parent="215">
                    <mxGeometry x="523" width="145" height="27" as="geometry">
                        <mxRectangle width="145" height="27" as="alternateBounds"/>
                    </mxGeometry>
                </mxCell>
                <mxCell id="224" value="" style="swimlane;swimlaneHead=0;swimlaneBody=0;fontStyle=0;connectable=0;fillColor=none;startSize=0;collapsible=0;recursiveResize=0;expand=0;rounded=1;fontSize=12;fontColor=#FFFF00;" vertex="1" parent="215">
                    <mxGeometry x="668" width="78" height="27" as="geometry">
                        <mxRectangle width="78" height="27" as="alternateBounds"/>
                    </mxGeometry>
                </mxCell>
                <mxCell id="225" value="" style="swimlane;swimlaneHead=0;swimlaneBody=0;fontStyle=0;connectable=0;fillColor=none;startSize=0;collapsible=0;recursiveResize=0;expand=0;rounded=1;fontSize=12;fontColor=#FFFF00;" vertex="1" parent="215">
                    <mxGeometry x="746" width="78" height="27" as="geometry">
                        <mxRectangle width="78" height="27" as="alternateBounds"/>
                    </mxGeometry>
                </mxCell>
                <mxCell id="226" value="" style="swimlane;swimlaneHead=0;swimlaneBody=0;fontStyle=0;connectable=0;fillColor=none;startSize=0;collapsible=0;recursiveResize=0;expand=0;rounded=1;fontSize=12;fontColor=#FFFF00;" vertex="1" parent="215">
                    <mxGeometry x="824" width="78" height="27" as="geometry">
                        <mxRectangle width="78" height="27" as="alternateBounds"/>
                    </mxGeometry>
                </mxCell>
                <mxCell id="227" value="" style="swimlane;swimlaneHead=0;swimlaneBody=0;fontStyle=0;connectable=0;fillColor=none;startSize=0;collapsible=0;recursiveResize=0;expand=0;rounded=1;fontSize=12;fontColor=#FFFF00;" vertex="1" parent="215">
                    <mxGeometry x="902" width="79" height="27" as="geometry">
                        <mxRectangle width="79" height="27" as="alternateBounds"/>
                    </mxGeometry>
                </mxCell>
                <mxCell id="228" value="" style="swimlane;swimlaneHead=0;swimlaneBody=0;fontStyle=0;connectable=0;fillColor=none;startSize=0;collapsible=0;recursiveResize=0;expand=0;rounded=1;fontSize=12;fontColor=#FFFF00;" vertex="1" parent="215">
                    <mxGeometry x="981" width="79" height="27" as="geometry">
                        <mxRectangle width="79" height="27" as="alternateBounds"/>
                    </mxGeometry>
                </mxCell>
                <mxCell id="229" value="" style="swimlane;swimlaneHead=0;swimlaneBody=0;fontStyle=0;connectable=0;fillColor=none;startSize=0;collapsible=0;recursiveResize=0;expand=0;rounded=1;fontSize=12;fontColor=#FFFF00;" vertex="1" parent="215">
                    <mxGeometry x="1060" width="78" height="27" as="geometry">
                        <mxRectangle width="78" height="27" as="alternateBounds"/>
                    </mxGeometry>
                </mxCell>
                <mxCell id="230" value="" style="swimlane;swimlaneHead=0;swimlaneBody=0;fontStyle=0;connectable=0;fillColor=none;startSize=0;collapsible=0;recursiveResize=0;expand=0;rounded=1;fontSize=12;fontColor=#FFFF00;" vertex="1" parent="215">
                    <mxGeometry x="1138" width="79" height="27" as="geometry">
                        <mxRectangle width="79" height="27" as="alternateBounds"/>
                    </mxGeometry>
                </mxCell>
                <mxCell id="231" value="" style="swimlane;swimlaneHead=0;swimlaneBody=0;fontStyle=0;connectable=0;fillColor=none;startSize=0;collapsible=0;recursiveResize=0;expand=0;rounded=1;fontSize=12;fontColor=#FFFF00;" vertex="1" parent="215">
                    <mxGeometry x="1217" width="78" height="27" as="geometry">
                        <mxRectangle width="78" height="27" as="alternateBounds"/>
                    </mxGeometry>
                </mxCell>
                <mxCell id="232" value="" style="swimlane;swimlaneHead=0;swimlaneBody=0;fontStyle=0;connectable=0;fillColor=none;startSize=0;collapsible=0;recursiveResize=0;expand=0;rounded=1;fontSize=12;fontColor=#FFFF00;" vertex="1" parent="215">
                    <mxGeometry x="1295" width="78" height="27" as="geometry">
                        <mxRectangle width="78" height="27" as="alternateBounds"/>
                    </mxGeometry>
                </mxCell>
                <mxCell id="233" value="" style="swimlane;swimlaneHead=0;swimlaneBody=0;fontStyle=0;connectable=0;fillColor=none;startSize=0;collapsible=0;recursiveResize=0;expand=0;rounded=1;fontSize=12;fontColor=#FFFF00;" vertex="1" parent="215">
                    <mxGeometry x="1373" width="78" height="27" as="geometry">
                        <mxRectangle width="78" height="27" as="alternateBounds"/>
                    </mxGeometry>
                </mxCell>
                <mxCell id="234" value="" style="swimlane;swimlaneHead=0;swimlaneBody=0;fontStyle=0;connectable=0;fillColor=none;startSize=0;collapsible=0;recursiveResize=0;expand=0;rounded=1;fontSize=12;fontColor=#FFFF00;" vertex="1" parent="215">
                    <mxGeometry x="1451" width="79" height="27" as="geometry">
                        <mxRectangle width="79" height="27" as="alternateBounds"/>
                    </mxGeometry>
                </mxCell>
                <mxCell id="235" value="" style="shape=tableRow;horizontal=0;swimlaneHead=0;swimlaneBody=0;top=0;left=0;bottom=0;right=0;dropTarget=0;fontStyle=0;fillColor=none;points=[[0,0.5],[1,0.5]];portConstraint=eastwest;startSize=40;collapsible=0;recursiveResize=0;expand=0;rounded=1;fontSize=12;fontColor=#FFFF00;" vertex="1" parent="34">
                    <mxGeometry y="337" width="1530" height="27" as="geometry"/>
                </mxCell>
                <mxCell id="236" value="" style="swimlane;swimlaneHead=0;swimlaneBody=0;fontStyle=0;connectable=0;fillColor=none;startSize=0;collapsible=0;recursiveResize=0;expand=0;rounded=1;fontSize=12;fontColor=#FFFF00;" vertex="1" parent="235">
                    <mxGeometry x="40" width="79" height="27" as="geometry">
                        <mxRectangle width="79" height="27" as="alternateBounds"/>
                    </mxGeometry>
                </mxCell>
                <mxCell id="237" value="" style="swimlane;swimlaneHead=0;swimlaneBody=0;fontStyle=0;connectable=0;fillColor=none;startSize=0;collapsible=0;recursiveResize=0;expand=0;rounded=1;fontSize=12;fontColor=#FFFF00;" vertex="1" parent="235">
                    <mxGeometry x="119" width="78" height="27" as="geometry">
                        <mxRectangle width="78" height="27" as="alternateBounds"/>
                    </mxGeometry>
                </mxCell>
                <mxCell id="238" value="" style="swimlane;swimlaneHead=0;swimlaneBody=0;fontStyle=0;connectable=0;fillColor=none;startSize=0;collapsible=0;recursiveResize=0;expand=0;rounded=1;fontSize=12;fontColor=#FFFF00;" vertex="1" parent="235">
                    <mxGeometry x="197" width="78" height="27" as="geometry">
                        <mxRectangle width="78" height="27" as="alternateBounds"/>
                    </mxGeometry>
                </mxCell>
                <mxCell id="239" value="" style="swimlane;swimlaneHead=0;swimlaneBody=0;fontStyle=0;connectable=0;fillColor=none;startSize=0;collapsible=0;recursiveResize=0;expand=0;rounded=1;fontSize=12;fontColor=#FFFF00;" vertex="1" parent="235">
                    <mxGeometry x="275" width="78" height="27" as="geometry">
                        <mxRectangle width="78" height="27" as="alternateBounds"/>
                    </mxGeometry>
                </mxCell>
                <mxCell id="240" value="" style="swimlane;swimlaneHead=0;swimlaneBody=0;fontStyle=0;connectable=0;fillColor=none;startSize=0;collapsible=0;recursiveResize=0;expand=0;rounded=1;fontSize=12;fontColor=#FFFF00;" vertex="1" parent="235">
                    <mxGeometry x="353" width="79" height="27" as="geometry">
                        <mxRectangle width="79" height="27" as="alternateBounds"/>
                    </mxGeometry>
                </mxCell>
                <mxCell id="241" value="" style="swimlane;swimlaneHead=0;swimlaneBody=0;fontStyle=0;connectable=0;fillColor=none;startSize=0;collapsible=0;recursiveResize=0;expand=0;rounded=1;fontSize=12;fontColor=#FFFF00;" vertex="1" parent="235">
                    <mxGeometry x="432" width="78" height="27" as="geometry">
                        <mxRectangle width="78" height="27" as="alternateBounds"/>
                    </mxGeometry>
                </mxCell>
                <mxCell id="242" value="" style="swimlane;swimlaneHead=0;swimlaneBody=0;fontStyle=0;connectable=0;fillColor=none;startSize=0;collapsible=0;recursiveResize=0;expand=0;rounded=1;fontSize=12;fontColor=#FFFF00;" vertex="1" parent="235">
                    <mxGeometry x="510" width="13" height="27" as="geometry">
                        <mxRectangle width="13" height="27" as="alternateBounds"/>
                    </mxGeometry>
                </mxCell>
                <mxCell id="243" value="" style="swimlane;swimlaneHead=0;swimlaneBody=0;fontStyle=0;connectable=0;fillColor=none;startSize=0;collapsible=0;recursiveResize=0;expand=0;rounded=1;fontSize=12;fontColor=#FFFF00;" vertex="1" parent="235">
                    <mxGeometry x="523" width="145" height="27" as="geometry">
                        <mxRectangle width="145" height="27" as="alternateBounds"/>
                    </mxGeometry>
                </mxCell>
                <mxCell id="244" value="" style="swimlane;swimlaneHead=0;swimlaneBody=0;fontStyle=0;connectable=0;fillColor=none;startSize=0;collapsible=0;recursiveResize=0;expand=0;rounded=1;fontSize=12;fontColor=#FFFF00;" vertex="1" parent="235">
                    <mxGeometry x="668" width="78" height="27" as="geometry">
                        <mxRectangle width="78" height="27" as="alternateBounds"/>
                    </mxGeometry>
                </mxCell>
                <mxCell id="245" value="" style="swimlane;swimlaneHead=0;swimlaneBody=0;fontStyle=0;connectable=0;fillColor=none;startSize=0;collapsible=0;recursiveResize=0;expand=0;rounded=1;fontSize=12;fontColor=#FFFF00;" vertex="1" parent="235">
                    <mxGeometry x="746" width="78" height="27" as="geometry">
                        <mxRectangle width="78" height="27" as="alternateBounds"/>
                    </mxGeometry>
                </mxCell>
                <mxCell id="246" value="" style="swimlane;swimlaneHead=0;swimlaneBody=0;fontStyle=0;connectable=0;fillColor=none;startSize=0;collapsible=0;recursiveResize=0;expand=0;rounded=1;fontSize=12;fontColor=#FFFF00;" vertex="1" parent="235">
                    <mxGeometry x="824" width="78" height="27" as="geometry">
                        <mxRectangle width="78" height="27" as="alternateBounds"/>
                    </mxGeometry>
                </mxCell>
                <mxCell id="247" value="" style="swimlane;swimlaneHead=0;swimlaneBody=0;fontStyle=0;connectable=0;fillColor=none;startSize=0;collapsible=0;recursiveResize=0;expand=0;rounded=1;fontSize=12;fontColor=#FFFF00;" vertex="1" parent="235">
                    <mxGeometry x="902" width="79" height="27" as="geometry">
                        <mxRectangle width="79" height="27" as="alternateBounds"/>
                    </mxGeometry>
                </mxCell>
                <mxCell id="248" value="" style="swimlane;swimlaneHead=0;swimlaneBody=0;fontStyle=0;connectable=0;fillColor=none;startSize=0;collapsible=0;recursiveResize=0;expand=0;rounded=1;fontSize=12;fontColor=#FFFF00;" vertex="1" parent="235">
                    <mxGeometry x="981" width="79" height="27" as="geometry">
                        <mxRectangle width="79" height="27" as="alternateBounds"/>
                    </mxGeometry>
                </mxCell>
                <mxCell id="249" value="" style="swimlane;swimlaneHead=0;swimlaneBody=0;fontStyle=0;connectable=0;fillColor=none;startSize=0;collapsible=0;recursiveResize=0;expand=0;rounded=1;fontSize=12;fontColor=#FFFF00;" vertex="1" parent="235">
                    <mxGeometry x="1060" width="78" height="27" as="geometry">
                        <mxRectangle width="78" height="27" as="alternateBounds"/>
                    </mxGeometry>
                </mxCell>
                <mxCell id="250" value="" style="swimlane;swimlaneHead=0;swimlaneBody=0;fontStyle=0;connectable=0;fillColor=none;startSize=0;collapsible=0;recursiveResize=0;expand=0;rounded=1;fontSize=12;fontColor=#FFFF00;" vertex="1" parent="235">
                    <mxGeometry x="1138" width="79" height="27" as="geometry">
                        <mxRectangle width="79" height="27" as="alternateBounds"/>
                    </mxGeometry>
                </mxCell>
                <mxCell id="251" value="" style="swimlane;swimlaneHead=0;swimlaneBody=0;fontStyle=0;connectable=0;fillColor=none;startSize=0;collapsible=0;recursiveResize=0;expand=0;rounded=1;fontSize=12;fontColor=#FFFF00;" vertex="1" parent="235">
                    <mxGeometry x="1217" width="78" height="27" as="geometry">
                        <mxRectangle width="78" height="27" as="alternateBounds"/>
                    </mxGeometry>
                </mxCell>
                <mxCell id="252" value="" style="swimlane;swimlaneHead=0;swimlaneBody=0;fontStyle=0;connectable=0;fillColor=none;startSize=0;collapsible=0;recursiveResize=0;expand=0;rounded=1;fontSize=12;fontColor=#FFFF00;" vertex="1" parent="235">
                    <mxGeometry x="1295" width="78" height="27" as="geometry">
                        <mxRectangle width="78" height="27" as="alternateBounds"/>
                    </mxGeometry>
                </mxCell>
                <mxCell id="253" value="" style="swimlane;swimlaneHead=0;swimlaneBody=0;fontStyle=0;connectable=0;fillColor=none;startSize=0;collapsible=0;recursiveResize=0;expand=0;rounded=1;fontSize=12;fontColor=#FFFF00;" vertex="1" parent="235">
                    <mxGeometry x="1373" width="78" height="27" as="geometry">
                        <mxRectangle width="78" height="27" as="alternateBounds"/>
                    </mxGeometry>
                </mxCell>
                <mxCell id="254" value="" style="swimlane;swimlaneHead=0;swimlaneBody=0;fontStyle=0;connectable=0;fillColor=none;startSize=0;collapsible=0;recursiveResize=0;expand=0;rounded=1;fontSize=12;fontColor=#FFFF00;" vertex="1" parent="235">
                    <mxGeometry x="1451" width="79" height="27" as="geometry">
                        <mxRectangle width="79" height="27" as="alternateBounds"/>
                    </mxGeometry>
                </mxCell>
                <mxCell id="255" value="" style="shape=tableRow;horizontal=0;swimlaneHead=0;swimlaneBody=0;top=0;left=0;bottom=0;right=0;dropTarget=0;fontStyle=0;fillColor=none;points=[[0,0.5],[1,0.5]];portConstraint=eastwest;startSize=40;collapsible=0;recursiveResize=0;expand=0;rounded=1;fontSize=12;fontColor=#FFFF00;" vertex="1" parent="34">
                    <mxGeometry y="364" width="1530" height="28" as="geometry"/>
                </mxCell>
                <mxCell id="256" value="" style="swimlane;swimlaneHead=0;swimlaneBody=0;fontStyle=0;connectable=0;fillColor=none;startSize=0;collapsible=0;recursiveResize=0;expand=0;rounded=1;fontSize=12;fontColor=#FFFF00;" vertex="1" parent="255">
                    <mxGeometry x="40" width="79" height="28" as="geometry">
                        <mxRectangle width="79" height="28" as="alternateBounds"/>
                    </mxGeometry>
                </mxCell>
                <mxCell id="257" value="" style="swimlane;swimlaneHead=0;swimlaneBody=0;fontStyle=0;connectable=0;fillColor=none;startSize=0;collapsible=0;recursiveResize=0;expand=0;rounded=1;fontSize=12;fontColor=#FFFF00;" vertex="1" parent="255">
                    <mxGeometry x="119" width="78" height="28" as="geometry">
                        <mxRectangle width="78" height="28" as="alternateBounds"/>
                    </mxGeometry>
                </mxCell>
                <mxCell id="258" value="" style="swimlane;swimlaneHead=0;swimlaneBody=0;fontStyle=0;connectable=0;fillColor=none;startSize=0;collapsible=0;recursiveResize=0;expand=0;rounded=1;fontSize=12;fontColor=#FFFF00;" vertex="1" parent="255">
                    <mxGeometry x="197" width="78" height="28" as="geometry">
                        <mxRectangle width="78" height="28" as="alternateBounds"/>
                    </mxGeometry>
                </mxCell>
                <mxCell id="259" value="" style="swimlane;swimlaneHead=0;swimlaneBody=0;fontStyle=0;connectable=0;fillColor=none;startSize=0;collapsible=0;recursiveResize=0;expand=0;rounded=1;fontSize=12;fontColor=#FFFF00;" vertex="1" parent="255">
                    <mxGeometry x="275" width="78" height="28" as="geometry">
                        <mxRectangle width="78" height="28" as="alternateBounds"/>
                    </mxGeometry>
                </mxCell>
                <mxCell id="260" value="" style="swimlane;swimlaneHead=0;swimlaneBody=0;fontStyle=0;connectable=0;fillColor=none;startSize=0;collapsible=0;recursiveResize=0;expand=0;rounded=1;fontSize=12;fontColor=#FFFF00;" vertex="1" parent="255">
                    <mxGeometry x="353" width="79" height="28" as="geometry">
                        <mxRectangle width="79" height="28" as="alternateBounds"/>
                    </mxGeometry>
                </mxCell>
                <mxCell id="261" value="" style="swimlane;swimlaneHead=0;swimlaneBody=0;fontStyle=0;connectable=0;fillColor=none;startSize=0;collapsible=0;recursiveResize=0;expand=0;rounded=1;fontSize=12;fontColor=#FFFF00;" vertex="1" parent="255">
                    <mxGeometry x="432" width="78" height="28" as="geometry">
                        <mxRectangle width="78" height="28" as="alternateBounds"/>
                    </mxGeometry>
                </mxCell>
                <mxCell id="262" value="" style="swimlane;swimlaneHead=0;swimlaneBody=0;fontStyle=0;connectable=0;fillColor=none;startSize=0;collapsible=0;recursiveResize=0;expand=0;rounded=1;fontSize=12;fontColor=#FFFF00;" vertex="1" parent="255">
                    <mxGeometry x="510" width="13" height="28" as="geometry">
                        <mxRectangle width="13" height="28" as="alternateBounds"/>
                    </mxGeometry>
                </mxCell>
                <mxCell id="263" value="" style="swimlane;swimlaneHead=0;swimlaneBody=0;fontStyle=0;connectable=0;fillColor=none;startSize=0;collapsible=0;recursiveResize=0;expand=0;rounded=1;fontSize=12;fontColor=#FFFF00;" vertex="1" parent="255">
                    <mxGeometry x="523" width="145" height="28" as="geometry">
                        <mxRectangle width="145" height="28" as="alternateBounds"/>
                    </mxGeometry>
                </mxCell>
                <mxCell id="264" value="" style="swimlane;swimlaneHead=0;swimlaneBody=0;fontStyle=0;connectable=0;fillColor=none;startSize=0;collapsible=0;recursiveResize=0;expand=0;rounded=1;fontSize=12;fontColor=#FFFF00;" vertex="1" parent="255">
                    <mxGeometry x="668" width="78" height="28" as="geometry">
                        <mxRectangle width="78" height="28" as="alternateBounds"/>
                    </mxGeometry>
                </mxCell>
                <mxCell id="265" value="" style="swimlane;swimlaneHead=0;swimlaneBody=0;fontStyle=0;connectable=0;fillColor=none;startSize=0;collapsible=0;recursiveResize=0;expand=0;rounded=1;fontSize=12;fontColor=#FFFF00;" vertex="1" parent="255">
                    <mxGeometry x="746" width="78" height="28" as="geometry">
                        <mxRectangle width="78" height="28" as="alternateBounds"/>
                    </mxGeometry>
                </mxCell>
                <mxCell id="266" value="" style="swimlane;swimlaneHead=0;swimlaneBody=0;fontStyle=0;connectable=0;fillColor=none;startSize=0;collapsible=0;recursiveResize=0;expand=0;rounded=1;fontSize=12;fontColor=#FFFF00;" vertex="1" parent="255">
                    <mxGeometry x="824" width="78" height="28" as="geometry">
                        <mxRectangle width="78" height="28" as="alternateBounds"/>
                    </mxGeometry>
                </mxCell>
                <mxCell id="267" value="" style="swimlane;swimlaneHead=0;swimlaneBody=0;fontStyle=0;connectable=0;fillColor=none;startSize=0;collapsible=0;recursiveResize=0;expand=0;rounded=1;fontSize=12;fontColor=#FFFF00;" vertex="1" parent="255">
                    <mxGeometry x="902" width="79" height="28" as="geometry">
                        <mxRectangle width="79" height="28" as="alternateBounds"/>
                    </mxGeometry>
                </mxCell>
                <mxCell id="268" value="" style="swimlane;swimlaneHead=0;swimlaneBody=0;fontStyle=0;connectable=0;fillColor=none;startSize=0;collapsible=0;recursiveResize=0;expand=0;rounded=1;fontSize=12;fontColor=#FFFF00;" vertex="1" parent="255">
                    <mxGeometry x="981" width="79" height="28" as="geometry">
                        <mxRectangle width="79" height="28" as="alternateBounds"/>
                    </mxGeometry>
                </mxCell>
                <mxCell id="269" value="" style="swimlane;swimlaneHead=0;swimlaneBody=0;fontStyle=0;connectable=0;fillColor=none;startSize=0;collapsible=0;recursiveResize=0;expand=0;rounded=1;fontSize=12;fontColor=#FFFF00;" vertex="1" parent="255">
                    <mxGeometry x="1060" width="78" height="28" as="geometry">
                        <mxRectangle width="78" height="28" as="alternateBounds"/>
                    </mxGeometry>
                </mxCell>
                <mxCell id="270" value="" style="swimlane;swimlaneHead=0;swimlaneBody=0;fontStyle=0;connectable=0;fillColor=none;startSize=0;collapsible=0;recursiveResize=0;expand=0;rounded=1;fontSize=12;fontColor=#FFFF00;" vertex="1" parent="255">
                    <mxGeometry x="1138" width="79" height="28" as="geometry">
                        <mxRectangle width="79" height="28" as="alternateBounds"/>
                    </mxGeometry>
                </mxCell>
                <mxCell id="271" value="" style="swimlane;swimlaneHead=0;swimlaneBody=0;fontStyle=0;connectable=0;fillColor=none;startSize=0;collapsible=0;recursiveResize=0;expand=0;rounded=1;fontSize=12;fontColor=#FFFF00;" vertex="1" parent="255">
                    <mxGeometry x="1217" width="78" height="28" as="geometry">
                        <mxRectangle width="78" height="28" as="alternateBounds"/>
                    </mxGeometry>
                </mxCell>
                <mxCell id="272" value="" style="swimlane;swimlaneHead=0;swimlaneBody=0;fontStyle=0;connectable=0;fillColor=none;startSize=0;collapsible=0;recursiveResize=0;expand=0;rounded=1;fontSize=12;fontColor=#FFFF00;" vertex="1" parent="255">
                    <mxGeometry x="1295" width="78" height="28" as="geometry">
                        <mxRectangle width="78" height="28" as="alternateBounds"/>
                    </mxGeometry>
                </mxCell>
                <mxCell id="273" value="" style="swimlane;swimlaneHead=0;swimlaneBody=0;fontStyle=0;connectable=0;fillColor=none;startSize=0;collapsible=0;recursiveResize=0;expand=0;rounded=1;fontSize=12;fontColor=#FFFF00;" vertex="1" parent="255">
                    <mxGeometry x="1373" width="78" height="28" as="geometry">
                        <mxRectangle width="78" height="28" as="alternateBounds"/>
                    </mxGeometry>
                </mxCell>
                <mxCell id="274" value="" style="swimlane;swimlaneHead=0;swimlaneBody=0;fontStyle=0;connectable=0;fillColor=none;startSize=0;collapsible=0;recursiveResize=0;expand=0;rounded=1;fontSize=12;fontColor=#FFFF00;" vertex="1" parent="255">
                    <mxGeometry x="1451" width="79" height="28" as="geometry">
                        <mxRectangle width="79" height="28" as="alternateBounds"/>
                    </mxGeometry>
                </mxCell>
                <mxCell id="6" style="edgeStyle=none;html=1;exitX=1;exitY=0.25;exitDx=0;exitDy=0;entryX=0;entryY=0.5;entryDx=0;entryDy=0;fontSize=12;fontColor=#FF0000;" edge="1" parent="1" source="3" target="4">
                    <mxGeometry relative="1" as="geometry"/>
                </mxCell>
                <mxCell id="7" value="" style="edgeStyle=none;html=1;fontSize=12;fontColor=#FF0000;entryX=0;entryY=0.5;entryDx=0;entryDy=0;exitX=1;exitY=0.75;exitDx=0;exitDy=0;" edge="1" parent="1" source="3" target="5">
                    <mxGeometry relative="1" as="geometry">
                        <mxPoint x="290" y="450" as="targetPoint"/>
                    </mxGeometry>
                </mxCell>
                <mxCell id="3" value="&lt;b style=&quot;font-size: 16px;&quot;&gt;&lt;font color=&quot;#ff0000&quot;&gt;EVENT&lt;/font&gt;&lt;br&gt;&lt;/b&gt;&lt;font style=&quot;font-size: 12px;&quot;&gt;&lt;font color=&quot;#007fff&quot;&gt;Pagamento &lt;/font&gt;&lt;font color=&quot;#ff8000&quot;&gt;Select Menu&lt;/font&gt;&lt;/font&gt;" style="whiteSpace=wrap;html=1;rounded=1;" vertex="1" parent="1">
                    <mxGeometry x="100" y="370" width="140" height="60" as="geometry"/>
                </mxCell>
                <mxCell id="10" style="edgeStyle=none;html=1;exitX=1;exitY=0.5;exitDx=0;exitDy=0;entryX=0;entryY=0.25;entryDx=0;entryDy=0;fontSize=12;fontColor=#FF0000;" edge="1" parent="1" source="4" target="9">
                    <mxGeometry relative="1" as="geometry"/>
                </mxCell>
                <mxCell id="4" value="Enviar &lt;font color=&quot;#ff8000&quot;&gt;Embed&lt;/font&gt;&lt;br&gt;&lt;font color=&quot;#ff99cc&quot;&gt;Desiludidos&lt;/font&gt;" style="rounded=1;whiteSpace=wrap;html=1;fontSize=12;" vertex="1" parent="1">
                    <mxGeometry x="300" y="320" width="120" height="60" as="geometry"/>
                </mxCell>
                <mxCell id="12" style="edgeStyle=none;html=1;entryX=0;entryY=0.75;entryDx=0;entryDy=0;fontSize=12;fontColor=#FF0000;exitX=1;exitY=0.5;exitDx=0;exitDy=0;" edge="1" parent="1" source="5" target="9">
                    <mxGeometry relative="1" as="geometry"/>
                </mxCell>
                <mxCell id="5" value="Enviar &lt;font color=&quot;#ff8000&quot;&gt;Embed&lt;/font&gt;&lt;br&gt;&lt;font color=&quot;#ff99cc&quot;&gt;Correio Elegante&lt;/font&gt;" style="rounded=1;whiteSpace=wrap;html=1;fontSize=12;" vertex="1" parent="1">
                    <mxGeometry x="300" y="420" width="120" height="60" as="geometry"/>
                </mxCell>
                <mxCell id="15" style="edgeStyle=none;html=1;entryX=0;entryY=0.5;entryDx=0;entryDy=0;fontSize=12;fontColor=#FF8000;exitX=1;exitY=0.25;exitDx=0;exitDy=0;" edge="1" parent="1" source="9" target="14">
                    <mxGeometry relative="1" as="geometry"/>
                </mxCell>
                <mxCell id="16" style="edgeStyle=none;html=1;exitX=1;exitY=0.75;exitDx=0;exitDy=0;entryX=0;entryY=0.5;entryDx=0;entryDy=0;fontSize=12;fontColor=#FF8000;" edge="1" parent="1" source="9" target="13">
                    <mxGeometry relative="1" as="geometry"/>
                </mxCell>
                <mxCell id="9" value="&lt;b style=&quot;font-size: 16px;&quot;&gt;&lt;font color=&quot;#ff0000&quot;&gt;EVENT&lt;/font&gt;&lt;br&gt;&lt;/b&gt;&lt;font style=&quot;font-size: 12px;&quot;&gt;&lt;font color=&quot;#007fff&quot;&gt;Produtos &lt;/font&gt;&lt;font color=&quot;#ff8000&quot;&gt;Select Menu&lt;/font&gt;&lt;/font&gt;" style="whiteSpace=wrap;html=1;rounded=1;" vertex="1" parent="1">
                    <mxGeometry x="480" y="370" width="140" height="60" as="geometry"/>
                </mxCell>
                <mxCell id="19" style="edgeStyle=none;html=1;exitX=1;exitY=0.5;exitDx=0;exitDy=0;entryX=0;entryY=0.75;entryDx=0;entryDy=0;fontSize=12;fontColor=#9933FF;" edge="1" parent="1" source="13" target="17">
                    <mxGeometry relative="1" as="geometry"/>
                </mxCell>
                <mxCell id="13" value="Enviar &lt;font color=&quot;#ff8000&quot;&gt;Modal&lt;/font&gt;&lt;br&gt;&lt;font color=&quot;#ff99cc&quot;&gt;Correio Elegante&lt;/font&gt;" style="rounded=1;whiteSpace=wrap;html=1;fontSize=12;" vertex="1" parent="1">
                    <mxGeometry x="680" y="420" width="120" height="60" as="geometry"/>
                </mxCell>
                <mxCell id="18" style="edgeStyle=none;html=1;exitX=1;exitY=0.5;exitDx=0;exitDy=0;entryX=0;entryY=0.25;entryDx=0;entryDy=0;fontSize=12;fontColor=#9933FF;" edge="1" parent="1" source="14" target="17">
                    <mxGeometry relative="1" as="geometry"/>
                </mxCell>
                <mxCell id="14" value="Enviar &lt;font color=&quot;#ff8000&quot;&gt;Modal&lt;/font&gt;&lt;br&gt;&lt;font color=&quot;#9933ff&quot;&gt;Desiludidos&lt;/font&gt;" style="rounded=1;whiteSpace=wrap;html=1;fontSize=12;" vertex="1" parent="1">
                    <mxGeometry x="680" y="320" width="120" height="60" as="geometry"/>
                </mxCell>
                <mxCell id="22" style="edgeStyle=none;html=1;exitX=1;exitY=0.25;exitDx=0;exitDy=0;entryX=0;entryY=0.5;entryDx=0;entryDy=0;fontSize=12;fontColor=#9933FF;" edge="1" parent="1" source="17" target="21">
                    <mxGeometry relative="1" as="geometry"/>
                </mxCell>
                <mxCell id="23" style="edgeStyle=none;html=1;entryX=0;entryY=0.5;entryDx=0;entryDy=0;fontSize=12;fontColor=#9933FF;" edge="1" parent="1" source="17" target="20">
                    <mxGeometry relative="1" as="geometry"/>
                </mxCell>
                <mxCell id="17" value="&lt;b style=&quot;font-size: 16px;&quot;&gt;&lt;font color=&quot;#ff0000&quot;&gt;EVENT&lt;/font&gt;&lt;br&gt;&lt;/b&gt;&lt;font style=&quot;font-size: 12px;&quot;&gt;&lt;font color=&quot;#007fff&quot;&gt;Produtos &lt;/font&gt;&lt;font color=&quot;#ff8000&quot;&gt;Modal Submit&lt;/font&gt;&lt;/font&gt;" style="whiteSpace=wrap;html=1;rounded=1;" vertex="1" parent="1">
                    <mxGeometry x="860" y="370" width="140" height="60" as="geometry"/>
                </mxCell>
                <mxCell id="27" style="edgeStyle=none;html=1;fontSize=12;fontColor=#FFFF00;entryX=0;entryY=0.75;entryDx=0;entryDy=0;exitX=1;exitY=0.5;exitDx=0;exitDy=0;" edge="1" parent="1" source="20" target="25">
                    <mxGeometry relative="1" as="geometry">
                        <mxPoint x="1230" y="400" as="targetPoint"/>
                    </mxGeometry>
                </mxCell>
                <mxCell id="20" value="Enviar &lt;font color=&quot;#00cc00&quot;&gt;Ticket&lt;/font&gt;&lt;br&gt;&lt;font color=&quot;#ff99cc&quot;&gt;Correio Elegante&lt;/font&gt;" style="rounded=1;whiteSpace=wrap;html=1;fontSize=12;" vertex="1" parent="1">
                    <mxGeometry x="1060" y="420" width="120" height="60" as="geometry"/>
                </mxCell>
                <mxCell id="26" style="edgeStyle=none;html=1;exitX=1;exitY=0.5;exitDx=0;exitDy=0;entryX=0;entryY=0.25;entryDx=0;entryDy=0;fontSize=12;fontColor=#FFFF00;" edge="1" parent="1" source="21" target="25">
                    <mxGeometry relative="1" as="geometry"/>
                </mxCell>
                <mxCell id="21" value="Enviar &lt;font color=&quot;#00cc00&quot;&gt;Ticket&lt;/font&gt;&lt;br&gt;&lt;font color=&quot;#9933ff&quot;&gt;Desiludidos&lt;/font&gt;" style="rounded=1;whiteSpace=wrap;html=1;fontSize=12;" vertex="1" parent="1">
                    <mxGeometry x="1060" y="320" width="120" height="60" as="geometry"/>
                </mxCell>
                <mxCell id="29" value="" style="edgeStyle=none;html=1;fontSize=12;fontColor=#FFFF00;" edge="1" parent="1" source="25" target="28">
                    <mxGeometry relative="1" as="geometry"/>
                </mxCell>
                <mxCell id="31" value="" style="edgeStyle=none;html=1;fontSize=12;fontColor=#007FFF;" edge="1" parent="1" source="25" target="30">
                    <mxGeometry relative="1" as="geometry"/>
                </mxCell>
                <mxCell id="25" value="&lt;b style=&quot;font-size: 16px;&quot;&gt;&lt;font color=&quot;#ffff00&quot;&gt;FUNÇÃO&lt;br&gt;&lt;/font&gt;&lt;/b&gt;&lt;font color=&quot;#ffff00&quot;&gt;Process Tickets Data&lt;/font&gt;" style="whiteSpace=wrap;html=1;rounded=1;" vertex="1" parent="1">
                    <mxGeometry x="1240" y="370" width="140" height="60" as="geometry"/>
                </mxCell>
                <mxCell id="28" value="Enviar &lt;font color=&quot;#ff8000&quot;&gt;Embed&lt;/font&gt;&lt;br&gt;&lt;font color=&quot;#007fff&quot;&gt;Tickets&lt;/font&gt;" style="rounded=1;whiteSpace=wrap;html=1;" vertex="1" parent="1">
                    <mxGeometry x="1250" y="510" width="120" height="60" as="geometry"/>
                </mxCell>
                <mxCell id="33" value="" style="edgeStyle=none;html=1;fontSize=12;fontColor=#33FFFF;" edge="1" parent="1" source="30" target="32">
                    <mxGeometry relative="1" as="geometry"/>
                </mxCell>
                <mxCell id="30" value="&lt;font color=&quot;#33ffff&quot;&gt;&lt;b&gt;CLASSE&lt;br&gt;&lt;/b&gt;TicketsDB&lt;/font&gt;" style="rounded=1;whiteSpace=wrap;html=1;" vertex="1" parent="1">
                    <mxGeometry x="1440" y="370" width="120" height="60" as="geometry"/>
                </mxCell>
                <mxCell id="32" value="&lt;b&gt;&lt;font color=&quot;#ffff00&quot;&gt;Adicionar Ticket&lt;/font&gt;&lt;/b&gt;" style="rounded=1;whiteSpace=wrap;html=1;" vertex="1" parent="1">
                    <mxGeometry x="1440" y="510" width="120" height="60" as="geometry"/>
                </mxCell>
            </root>
        </mxGraphModel>
    </diagram>
</mxfile>